<svg id="레이어_1" data-name="레이어 1" xmlns="http://www.w3.org/2000/svg" xmlns:xlink="http://www.w3.org/1999/xlink" viewBox="0 0 326.65 61.29"><defs><style>.cls-1{fill:none;}.cls-2{fill:#c47b42;}.cls-3{fill:#040000;}.cls-4{clip-path:url(#clip-path);}.cls-5{fill:#ad693b;}</style><clipPath id="clip-path"><path class="cls-1" d="M1.5,1.5V13.21a3.06,3.06,0,0,0,3.06,3.06H6.32V49A10.83,10.83,0,0,0,17.15,59.79H309.5A10.83,10.83,0,0,0,320.33,49V16.27h1.76a3.06,3.06,0,0,0,3.06-3.06V1.5Z"/></clipPath></defs><path class="cls-2" d="M1.5,1.5V13.21a3.06,3.06,0,0,0,3.06,3.06H6.32V49A10.83,10.83,0,0,0,17.15,59.79H309.5A10.83,10.83,0,0,0,320.33,49V16.27h1.76a3.06,3.06,0,0,0,3.06-3.06V1.5Z"/><path class="cls-3" d="M309.5,61.29H17.15A12.34,12.34,0,0,1,4.82,49V17.77H4.56A4.57,4.57,0,0,1,0,13.21V0H326.65V13.21a4.57,4.57,0,0,1-4.56,4.56h-.26V49A12.34,12.34,0,0,1,309.5,61.29ZM3,3V13.21a1.56,1.56,0,0,0,1.56,1.56H7.82V49a9.34,9.34,0,0,0,9.33,9.33H309.5A9.34,9.34,0,0,0,318.83,49V14.77h3.26a1.56,1.56,0,0,0,1.56-1.56V3Z"/><g class="cls-4"><polygon class="cls-5" points="15.29 25.66 -1.54 25.66 -1.54 17.75 1.46 17.75 1.46 22.66 12.29 22.66 12.29 17.75 15.29 17.75 15.29 25.66"/><polygon class="cls-5" points="37.64 25.66 20.81 25.66 20.81 17.75 23.81 17.75 23.81 22.66 34.64 22.66 34.64 17.75 37.64 17.75 37.64 25.66"/><polygon class="cls-5" points="26.46 32.96 9.63 32.96 9.63 25.05 12.63 25.05 12.63 29.96 23.46 29.96 23.46 25.05 26.46 25.05 26.46 32.96"/><polygon class="cls-5" points="59.99 25.66 43.16 25.66 43.16 17.75 46.16 17.75 46.16 22.66 56.99 22.66 56.99 17.75 59.99 17.75 59.99 25.66"/><polygon class="cls-5" points="48.81 32.96 31.98 32.96 31.98 25.05 34.98 25.05 34.98 29.96 45.81 29.96 45.81 25.05 48.81 25.05 48.81 32.96"/><polygon class="cls-5" points="82.34 25.66 65.51 25.66 65.51 17.75 68.51 17.75 68.51 22.66 79.34 22.66 79.34 17.75 82.34 17.75 82.34 25.66"/><polygon class="cls-5" points="71.16 32.96 54.33 32.96 54.33 25.05 57.33 25.05 57.33 29.96 68.16 29.96 68.16 25.05 71.16 25.05 71.16 32.96"/><polygon class="cls-5" points="104.69 25.66 87.86 25.66 87.86 17.75 90.86 17.75 90.86 22.66 101.69 22.66 101.69 17.75 104.69 17.75 104.69 25.66"/><polygon class="cls-5" points="93.51 32.96 76.68 32.96 76.68 25.05 79.68 25.05 79.68 29.96 90.51 29.96 90.51 25.05 93.51 25.05 93.51 32.96"/><polygon class="cls-5" points="127.04 25.66 110.21 25.66 110.21 17.75 113.21 17.75 113.21 22.66 124.04 22.66 124.04 17.75 127.04 17.75 127.04 25.66"/><polygon class="cls-5" points="115.86 32.96 99.03 32.96 99.03 25.05 102.03 25.05 102.03 29.96 112.86 29.96 112.86 25.05 115.86 25.05 115.86 32.96"/><polygon class="cls-5" points="149.39 25.66 132.56 25.66 132.56 17.75 135.56 17.75 135.56 22.66 146.39 22.66 146.39 17.75 149.39 17.75 149.39 25.66"/><polygon class="cls-5" points="138.21 32.96 121.38 32.96 121.38 25.05 124.38 25.05 124.38 29.96 135.21 29.96 135.21 25.05 138.21 25.05 138.21 32.96"/><polygon class="cls-5" points="171.74 25.66 154.91 25.66 154.91 17.75 157.91 17.75 157.91 22.66 168.74 22.66 168.74 17.75 171.74 17.75 171.74 25.66"/><polygon class="cls-5" points="160.56 32.96 143.73 32.96 143.73 25.05 146.73 25.05 146.73 29.96 157.56 29.96 157.56 25.05 160.56 25.05 160.56 32.96"/><polygon class="cls-5" points="194.09 25.66 177.26 25.66 177.26 17.75 180.26 17.75 180.26 22.66 191.09 22.66 191.09 17.75 194.09 17.75 194.09 25.66"/><polygon class="cls-5" points="182.91 32.96 166.08 32.96 166.08 25.05 169.08 25.05 169.08 29.96 179.91 29.96 179.91 25.05 182.91 25.05 182.91 32.96"/><polygon class="cls-5" points="216.44 25.66 199.61 25.66 199.61 17.75 202.61 17.75 202.61 22.66 213.44 22.66 213.44 17.75 216.44 17.75 216.44 25.66"/><polygon class="cls-5" points="205.26 32.96 188.43 32.96 188.43 25.05 191.43 25.05 191.43 29.96 202.26 29.96 202.26 25.05 205.26 25.05 205.26 32.96"/><polygon class="cls-5" points="238.79 25.66 221.96 25.66 221.96 17.75 224.96 17.75 224.96 22.66 235.79 22.66 235.79 17.75 238.79 17.75 238.79 25.66"/><polygon class="cls-5" points="227.61 32.96 210.78 32.96 210.78 25.05 213.78 25.05 213.78 29.96 224.61 29.96 224.61 25.05 227.61 25.05 227.61 32.96"/><polygon class="cls-5" points="261.14 25.66 244.31 25.66 244.31 17.75 247.31 17.75 247.31 22.66 258.14 22.66 258.14 17.75 261.14 17.75 261.14 25.66"/><polygon class="cls-5" points="249.96 32.96 233.13 32.96 233.13 25.05 236.13 25.05 236.13 29.96 246.96 29.96 246.96 25.05 249.96 25.05 249.96 32.96"/><polygon class="cls-5" points="283.49 25.66 266.66 25.66 266.66 17.75 269.66 17.75 269.66 22.66 280.49 22.66 280.49 17.75 283.49 17.75 283.49 25.66"/><polygon class="cls-5" points="272.31 32.96 255.48 32.96 255.48 25.05 258.48 25.05 258.48 29.96 269.31 29.96 269.31 25.05 272.31 25.05 272.31 32.96"/><polygon class="cls-5" points="305.84 25.66 289.01 25.66 289.01 17.75 292.01 17.75 292.01 22.66 302.84 22.66 302.84 17.75 305.84 17.75 305.84 25.66"/><polygon class="cls-5" points="294.66 32.96 277.83 32.96 277.83 25.05 280.83 25.05 280.83 29.96 291.66 29.96 291.66 25.05 294.66 25.05 294.66 32.96"/><polygon class="cls-5" points="328.19 25.66 311.36 25.66 311.36 17.75 314.36 17.75 314.36 22.66 325.19 22.66 325.19 17.75 328.19 17.75 328.19 25.66"/><polygon class="cls-5" points="317.01 32.96 300.18 32.96 300.18 25.05 303.18 25.05 303.18 29.96 314.01 29.96 314.01 25.05 317.01 25.05 317.01 32.96"/><polygon class="cls-5" points="15.29 40.85 -1.54 40.85 -1.54 32.94 1.46 32.94 1.46 37.85 12.29 37.85 12.29 32.94 15.29 32.94 15.29 40.85"/><polygon class="cls-5" points="37.64 40.85 20.81 40.85 20.81 32.94 23.81 32.94 23.81 37.85 34.64 37.85 34.64 32.94 37.64 32.94 37.64 40.85"/><polygon class="cls-5" points="26.46 48.15 9.63 48.15 9.63 40.24 12.63 40.24 12.63 45.15 23.46 45.15 23.46 40.24 26.46 40.24 26.46 48.15"/><polygon class="cls-5" points="59.99 40.85 43.16 40.85 43.16 32.94 46.16 32.94 46.16 37.85 56.99 37.85 56.99 32.94 59.99 32.94 59.99 40.85"/><polygon class="cls-5" points="48.81 48.15 31.98 48.15 31.98 40.24 34.98 40.24 34.98 45.15 45.81 45.15 45.81 40.24 48.81 40.24 48.81 48.15"/><polygon class="cls-5" points="82.34 40.85 65.51 40.85 65.51 32.94 68.51 32.94 68.51 37.85 79.34 37.85 79.34 32.94 82.34 32.94 82.34 40.85"/><polygon class="cls-5" points="71.16 48.15 54.33 48.15 54.33 40.24 57.33 40.24 57.33 45.15 68.16 45.15 68.16 40.24 71.16 40.24 71.16 48.15"/><polygon class="cls-5" points="104.69 40.85 87.86 40.85 87.86 32.94 90.86 32.94 90.86 37.85 101.69 37.85 101.69 32.94 104.69 32.94 104.69 40.85"/><polygon class="cls-5" points="93.51 48.15 76.68 48.15 76.68 40.24 79.68 40.24 79.68 45.15 90.51 45.15 90.51 40.24 93.51 40.24 93.51 48.15"/><polygon class="cls-5" points="127.04 40.85 110.21 40.85 110.21 32.94 113.21 32.94 113.21 37.85 124.04 37.85 124.04 32.94 127.04 32.94 127.04 40.85"/><polygon class="cls-5" points="115.86 48.15 99.03 48.15 99.03 40.24 102.03 40.24 102.03 45.15 112.86 45.15 112.86 40.24 115.86 40.24 115.86 48.15"/><polygon class="cls-5" points="149.39 40.85 132.56 40.85 132.56 32.94 135.56 32.94 135.56 37.85 146.39 37.85 146.39 32.94 149.39 32.94 149.39 40.85"/><polygon class="cls-5" points="138.21 48.15 121.38 48.15 121.38 40.24 124.38 40.24 124.38 45.15 135.21 45.15 135.21 40.24 138.21 40.24 138.21 48.15"/><polygon class="cls-5" points="171.74 40.85 154.91 40.85 154.91 32.94 157.91 32.94 157.91 37.85 168.74 37.85 168.74 32.94 171.74 32.94 171.74 40.85"/><polygon class="cls-5" points="160.56 48.15 143.73 48.15 143.73 40.24 146.73 40.24 146.73 45.15 157.56 45.15 157.56 40.24 160.56 40.24 160.56 48.15"/><polygon class="cls-5" points="194.09 40.85 177.26 40.85 177.26 32.94 180.26 32.94 180.26 37.85 191.09 37.85 191.09 32.94 194.09 32.94 194.09 40.85"/><polygon class="cls-5" points="182.91 48.15 166.08 48.15 166.08 40.24 169.08 40.24 169.08 45.15 179.91 45.15 179.91 40.24 182.91 40.24 182.91 48.15"/><polygon class="cls-5" points="216.44 40.85 199.61 40.85 199.61 32.94 202.61 32.94 202.61 37.85 213.44 37.85 213.44 32.94 216.44 32.94 216.44 40.85"/><polygon class="cls-5" points="205.26 48.15 188.43 48.15 188.43 40.24 191.43 40.24 191.43 45.15 202.26 45.15 202.26 40.24 205.26 40.24 205.26 48.15"/><polygon class="cls-5" points="238.79 40.85 221.96 40.85 221.96 32.94 224.96 32.94 224.96 37.85 235.79 37.85 235.79 32.94 238.79 32.94 238.79 40.85"/><polygon class="cls-5" points="227.61 48.15 210.78 48.15 210.78 40.24 213.78 40.24 213.78 45.15 224.61 45.15 224.61 40.24 227.61 40.24 227.61 48.15"/><polygon class="cls-5" points="261.14 40.85 244.31 40.85 244.31 32.94 247.31 32.94 247.31 37.85 258.14 37.85 258.14 32.94 261.14 32.94 261.14 40.85"/><polygon class="cls-5" points="249.96 48.15 233.13 48.15 233.13 40.24 236.13 40.24 236.13 45.15 246.96 45.15 246.96 40.24 249.96 40.24 249.96 48.15"/><polygon class="cls-5" points="283.49 40.85 266.66 40.85 266.66 32.94 269.66 32.94 269.66 37.85 280.49 37.85 280.49 32.94 283.49 32.94 283.49 40.85"/><polygon class="cls-5" points="272.31 48.15 255.48 48.15 255.48 40.24 258.48 40.24 258.48 45.15 269.31 45.15 269.31 40.24 272.31 40.24 272.31 48.15"/><polygon class="cls-5" points="305.84 40.85 289.01 40.85 289.01 32.94 292.01 32.94 292.01 37.85 302.84 37.85 302.84 32.94 305.84 32.94 305.84 40.85"/><polygon class="cls-5" points="294.66 48.15 277.83 48.15 277.83 40.24 280.83 40.24 280.83 45.15 291.66 45.15 291.66 40.24 294.66 40.24 294.66 48.15"/><polygon class="cls-5" points="328.19 40.85 311.36 40.85 311.36 32.94 314.36 32.94 314.36 37.85 325.19 37.85 325.19 32.94 328.19 32.94 328.19 40.85"/><polygon class="cls-5" points="317.01 48.15 300.18 48.15 300.18 40.24 303.18 40.24 303.18 45.15 314.01 45.15 314.01 40.24 317.01 40.24 317.01 48.15"/><polygon class="cls-5" points="15.29 56.04 -1.54 56.04 -1.54 48.13 1.46 48.13 1.46 53.04 12.29 53.04 12.29 48.13 15.29 48.13 15.29 56.04"/><polygon class="cls-5" points="37.64 56.04 20.81 56.04 20.81 48.13 23.81 48.13 23.81 53.04 34.64 53.04 34.64 48.13 37.64 48.13 37.64 56.04"/><polygon class="cls-5" points="26.46 63.34 9.63 63.34 9.63 55.44 12.63 55.44 12.63 60.34 23.46 60.34 23.46 55.44 26.46 55.44 26.46 63.34"/><polygon class="cls-5" points="59.99 56.04 43.16 56.04 43.16 48.13 46.16 48.13 46.16 53.04 56.99 53.04 56.99 48.13 59.99 48.13 59.99 56.04"/><polygon class="cls-5" points="48.81 63.34 31.98 63.34 31.98 55.44 34.98 55.44 34.98 60.34 45.81 60.34 45.81 55.44 48.81 55.44 48.81 63.34"/><polygon class="cls-5" points="82.34 56.04 65.51 56.04 65.51 48.13 68.51 48.13 68.51 53.04 79.34 53.04 79.34 48.13 82.34 48.13 82.34 56.04"/><polygon class="cls-5" points="71.16 63.34 54.33 63.34 54.33 55.44 57.33 55.44 57.33 60.34 68.16 60.34 68.16 55.44 71.16 55.44 71.16 63.34"/><polygon class="cls-5" points="104.69 56.04 87.86 56.04 87.86 48.13 90.86 48.13 90.86 53.04 101.69 53.04 101.69 48.13 104.69 48.13 104.69 56.04"/><polygon class="cls-5" points="93.51 63.34 76.68 63.34 76.68 55.44 79.68 55.44 79.68 60.34 90.51 60.34 90.51 55.44 93.51 55.44 93.51 63.34"/><polygon class="cls-5" points="127.04 56.04 110.21 56.04 110.21 48.13 113.21 48.13 113.21 53.04 124.04 53.04 124.04 48.13 127.04 48.13 127.04 56.04"/><polygon class="cls-5" points="115.86 63.34 99.03 63.34 99.03 55.44 102.03 55.44 102.03 60.34 112.86 60.34 112.86 55.44 115.86 55.44 115.86 63.34"/><polygon class="cls-5" points="149.39 56.04 132.56 56.04 132.56 48.13 135.56 48.13 135.56 53.04 146.39 53.04 146.39 48.13 149.39 48.13 149.39 56.04"/><polygon class="cls-5" points="138.21 63.34 121.38 63.34 121.38 55.44 124.38 55.44 124.38 60.34 135.21 60.34 135.21 55.44 138.21 55.44 138.21 63.34"/><polygon class="cls-5" points="171.74 56.04 154.91 56.04 154.91 48.13 157.91 48.13 157.91 53.04 168.74 53.04 168.74 48.13 171.74 48.13 171.74 56.04"/><polygon class="cls-5" points="160.56 63.34 143.73 63.34 143.73 55.44 146.73 55.44 146.73 60.34 157.56 60.34 157.56 55.44 160.56 55.44 160.56 63.34"/><polygon class="cls-5" points="194.09 56.04 177.26 56.04 177.26 48.13 180.26 48.13 180.26 53.04 191.09 53.04 191.09 48.13 194.09 48.13 194.09 56.04"/><polygon class="cls-5" points="182.91 63.34 166.08 63.34 166.08 55.44 169.08 55.44 169.08 60.34 179.91 60.34 179.91 55.44 182.91 55.44 182.91 63.34"/><polygon class="cls-5" points="216.44 56.04 199.61 56.04 199.61 48.13 202.61 48.13 202.61 53.04 213.44 53.04 213.44 48.13 216.44 48.13 216.44 56.04"/><polygon class="cls-5" points="205.26 63.34 188.43 63.34 188.43 55.44 191.43 55.44 191.43 60.34 202.26 60.34 202.26 55.44 205.26 55.44 205.26 63.34"/><polygon class="cls-5" points="238.79 56.04 221.96 56.04 221.96 48.13 224.96 48.13 224.96 53.04 235.79 53.04 235.79 48.13 238.79 48.13 238.79 56.04"/><polygon class="cls-5" points="227.61 63.34 210.78 63.34 210.78 55.44 213.78 55.44 213.78 60.34 224.61 60.34 224.61 55.44 227.61 55.44 227.61 63.34"/><polygon class="cls-5" points="261.14 56.04 244.31 56.04 244.31 48.13 247.31 48.13 247.31 53.04 258.14 53.04 258.14 48.13 261.14 48.13 261.14 56.04"/><polygon class="cls-5" points="249.96 63.34 233.13 63.34 233.13 55.44 236.13 55.44 236.13 60.34 246.96 60.34 246.96 55.44 249.96 55.44 249.96 63.34"/><polygon class="cls-5" points="283.49 56.04 266.66 56.04 266.66 48.13 269.66 48.13 269.66 53.04 280.49 53.04 280.49 48.13 283.49 48.13 283.49 56.04"/><polygon class="cls-5" points="272.31 63.34 255.48 63.34 255.48 55.44 258.48 55.44 258.48 60.34 269.31 60.34 269.31 55.44 272.31 55.44 272.31 63.34"/><polygon class="cls-5" points="305.84 56.04 289.01 56.04 289.01 48.13 292.01 48.13 292.01 53.04 302.84 53.04 302.84 48.13 305.84 48.13 305.84 56.04"/><polygon class="cls-5" points="294.66 63.34 277.83 63.34 277.83 55.44 280.83 55.44 280.83 60.34 291.66 60.34 291.66 55.44 294.66 55.44 294.66 63.34"/><polygon class="cls-5" points="328.19 56.04 311.36 56.04 311.36 48.13 314.36 48.13 314.36 53.04 325.19 53.04 325.19 48.13 328.19 48.13 328.19 56.04"/><polygon class="cls-5" points="317.01 63.34 300.18 63.34 300.18 55.44 303.18 55.44 303.18 60.34 314.01 60.34 314.01 55.44 317.01 55.44 317.01 63.34"/><polygon class="cls-5" points="26.46 2.58 9.63 2.58 9.63 -5.33 12.63 -5.33 12.63 -0.42 23.46 -0.42 23.46 -5.33 26.46 -5.33 26.46 2.58"/><polygon class="cls-5" points="48.81 2.58 31.98 2.58 31.98 -5.33 34.98 -5.33 34.98 -0.42 45.81 -0.42 45.81 -5.33 48.81 -5.33 48.81 2.58"/><polygon class="cls-5" points="71.16 2.58 54.33 2.58 54.33 -5.33 57.33 -5.33 57.33 -0.42 68.16 -0.42 68.16 -5.33 71.16 -5.33 71.16 2.58"/><polygon class="cls-5" points="93.51 2.58 76.68 2.58 76.68 -5.33 79.68 -5.33 79.68 -0.42 90.51 -0.42 90.51 -5.33 93.51 -5.33 93.51 2.58"/><polygon class="cls-5" points="115.86 2.58 99.03 2.58 99.03 -5.33 102.03 -5.33 102.03 -0.42 112.86 -0.42 112.86 -5.33 115.86 -5.33 115.86 2.58"/><polygon class="cls-5" points="138.21 2.58 121.38 2.58 121.38 -5.33 124.38 -5.33 124.38 -0.42 135.21 -0.42 135.21 -5.33 138.21 -5.33 138.21 2.58"/><polygon class="cls-5" points="160.56 2.58 143.73 2.58 143.73 -5.33 146.73 -5.33 146.73 -0.42 157.56 -0.42 157.56 -5.33 160.56 -5.33 160.56 2.58"/><polygon class="cls-5" points="182.91 2.58 166.08 2.58 166.08 -5.33 169.08 -5.33 169.08 -0.42 179.91 -0.42 179.91 -5.33 182.91 -5.33 182.91 2.58"/><polygon class="cls-5" points="205.26 2.58 188.43 2.58 188.43 -5.33 191.43 -5.33 191.43 -0.42 202.26 -0.42 202.26 -5.33 205.26 -5.33 205.26 2.58"/><polygon class="cls-5" points="227.61 2.58 210.78 2.58 210.78 -5.33 213.78 -5.33 213.78 -0.42 224.61 -0.42 224.61 -5.33 227.61 -5.33 227.61 2.58"/><polygon class="cls-5" points="249.96 2.58 233.13 2.58 233.13 -5.33 236.13 -5.33 236.13 -0.42 246.96 -0.42 246.96 -5.33 249.96 -5.33 249.96 2.58"/><polygon class="cls-5" points="272.31 2.58 255.48 2.58 255.48 -5.33 258.48 -5.33 258.48 -0.42 269.31 -0.42 269.31 -5.33 272.31 -5.33 272.31 2.58"/><polygon class="cls-5" points="294.66 2.58 277.83 2.58 277.83 -5.33 280.83 -5.33 280.83 -0.42 291.66 -0.42 291.66 -5.33 294.66 -5.33 294.66 2.58"/><polygon class="cls-5" points="317.01 2.58 300.18 2.58 300.18 -5.33 303.18 -5.33 303.18 -0.42 314.01 -0.42 314.01 -5.33 317.01 -5.33 317.01 2.58"/><polygon class="cls-5" points="15.29 10.47 -1.54 10.47 -1.54 2.56 1.46 2.56 1.46 7.47 12.29 7.47 12.29 2.56 15.29 2.56 15.29 10.47"/><polygon class="cls-5" points="37.64 10.47 20.81 10.47 20.81 2.56 23.81 2.56 23.81 7.47 34.64 7.47 34.64 2.56 37.64 2.56 37.64 10.47"/><polygon class="cls-5" points="26.46 17.77 9.63 17.77 9.63 9.86 12.63 9.86 12.63 14.77 23.46 14.77 23.46 9.86 26.46 9.86 26.46 17.77"/><polygon class="cls-5" points="59.99 10.47 43.16 10.47 43.16 2.56 46.16 2.56 46.16 7.47 56.99 7.47 56.99 2.56 59.99 2.56 59.99 10.47"/><polygon class="cls-5" points="48.81 17.77 31.98 17.77 31.98 9.86 34.98 9.86 34.98 14.77 45.81 14.77 45.81 9.86 48.81 9.86 48.81 17.77"/><polygon class="cls-5" points="82.34 10.47 65.51 10.47 65.51 2.56 68.51 2.56 68.51 7.47 79.34 7.47 79.34 2.56 82.34 2.56 82.34 10.47"/><polygon class="cls-5" points="71.16 17.77 54.33 17.77 54.33 9.86 57.33 9.86 57.33 14.77 68.16 14.77 68.16 9.86 71.16 9.86 71.16 17.77"/><polygon class="cls-5" points="104.69 10.47 87.86 10.47 87.86 2.56 90.86 2.56 90.86 7.47 101.69 7.47 101.69 2.56 104.69 2.56 104.69 10.47"/><polygon class="cls-5" points="93.51 17.77 76.68 17.77 76.68 9.86 79.68 9.86 79.68 14.77 90.51 14.77 90.51 9.86 93.51 9.86 93.51 17.77"/><polygon class="cls-5" points="127.04 10.47 110.21 10.47 110.21 2.56 113.21 2.56 113.21 7.47 124.04 7.47 124.04 2.56 127.04 2.56 127.04 10.47"/><polygon class="cls-5" points="115.86 17.77 99.03 17.77 99.03 9.86 102.03 9.86 102.03 14.77 112.86 14.77 112.86 9.86 115.86 9.86 115.86 17.77"/><polygon class="cls-5" points="149.39 10.47 132.56 10.47 132.56 2.56 135.56 2.56 135.56 7.47 146.39 7.47 146.39 2.56 149.39 2.56 149.39 10.47"/><polygon class="cls-5" points="138.21 17.77 121.38 17.77 121.38 9.86 124.38 9.86 124.38 14.77 135.21 14.77 135.21 9.86 138.21 9.86 138.21 17.77"/><polygon class="cls-5" points="171.74 10.47 154.91 10.47 154.91 2.56 157.91 2.56 157.91 7.47 168.74 7.47 168.74 2.56 171.74 2.56 171.74 10.47"/><polygon class="cls-5" points="160.56 17.77 143.73 17.77 143.73 9.86 146.73 9.86 146.73 14.77 157.56 14.77 157.56 9.86 160.56 9.86 160.56 17.77"/><polygon class="cls-5" points="194.09 10.47 177.26 10.47 177.26 2.56 180.26 2.56 180.26 7.47 191.09 7.47 191.09 2.56 194.09 2.56 194.09 10.47"/><polygon class="cls-5" points="182.91 17.77 166.08 17.77 166.08 9.86 169.08 9.86 169.08 14.77 179.91 14.77 179.91 9.86 182.91 9.86 182.91 17.77"/><polygon class="cls-5" points="216.44 10.47 199.61 10.47 199.61 2.56 202.61 2.56 202.61 7.47 213.44 7.47 213.44 2.56 216.44 2.56 216.44 10.47"/><polygon class="cls-5" points="205.26 17.77 188.43 17.77 188.43 9.86 191.43 9.86 191.43 14.77 202.26 14.77 202.26 9.86 205.26 9.86 205.26 17.77"/><polygon class="cls-5" points="238.79 10.47 221.96 10.47 221.96 2.56 224.96 2.56 224.96 7.47 235.79 7.47 235.79 2.56 238.79 2.56 238.79 10.47"/><polygon class="cls-5" points="227.61 17.77 210.78 17.77 210.78 9.86 213.78 9.86 213.78 14.77 224.61 14.77 224.61 9.86 227.61 9.86 227.61 17.77"/><polygon class="cls-5" points="261.14 10.47 244.31 10.47 244.31 2.56 247.31 2.56 247.31 7.47 258.14 7.47 258.14 2.56 261.14 2.56 261.14 10.47"/><polygon class="cls-5" points="249.96 17.77 233.13 17.77 233.13 9.86 236.13 9.86 236.13 14.77 246.96 14.77 246.96 9.86 249.96 9.86 249.96 17.77"/><polygon class="cls-5" points="283.49 10.47 266.66 10.47 266.66 2.56 269.66 2.56 269.66 7.47 280.49 7.47 280.49 2.56 283.49 2.56 283.49 10.47"/><polygon class="cls-5" points="272.31 17.77 255.48 17.77 255.48 9.86 258.48 9.86 258.48 14.77 269.31 14.77 269.31 9.86 272.31 9.86 272.31 17.77"/><polygon class="cls-5" points="305.84 10.47 289.01 10.47 289.01 2.56 292.01 2.56 292.01 7.47 302.84 7.47 302.84 2.56 305.84 2.56 305.84 10.47"/><polygon class="cls-5" points="294.66 17.77 277.83 17.77 277.83 9.86 280.83 9.86 280.83 14.77 291.66 14.77 291.66 9.86 294.66 9.86 294.66 17.77"/><polygon class="cls-5" points="328.19 10.47 311.36 10.47 311.36 2.56 314.36 2.56 314.36 7.47 325.19 7.47 325.19 2.56 328.19 2.56 328.19 10.47"/><polygon class="cls-5" points="317.01 17.77 300.18 17.77 300.18 9.86 303.18 9.86 303.18 14.77 314.01 14.77 314.01 9.86 317.01 9.86 317.01 17.77"/></g><path class="cls-3" d="M309.5,61.29H17.15A12.34,12.34,0,0,1,4.82,49V17.77H4.56A4.57,4.57,0,0,1,0,13.21V0H326.65V13.21a4.57,4.57,0,0,1-4.56,4.56h-.26V49A12.34,12.34,0,0,1,309.5,61.29ZM3,3V13.21a1.56,1.56,0,0,0,1.56,1.56H7.82V49a9.34,9.34,0,0,0,9.33,9.33H309.5A9.34,9.34,0,0,0,318.83,49V14.77h3.26a1.56,1.56,0,0,0,1.56-1.56V3Z"/></svg>