<svg id="레이어_1" data-name="레이어 1" xmlns="http://www.w3.org/2000/svg" xmlns:xlink="http://www.w3.org/1999/xlink" viewBox="0 0 326.65 90.82"><defs><style>.cls-1{fill:none;}.cls-2{fill:#c47b42;}.cls-3{fill:#040000;}.cls-4{clip-path:url(#clip-path);}.cls-5{fill:#ad693b;}</style><clipPath id="clip-path"><path class="cls-1" d="M1.5,31V42.74A3.06,3.06,0,0,0,4.56,45.8H6.32V78.49A10.82,10.82,0,0,0,17.15,89.32H309.5a10.83,10.83,0,0,0,10.83-10.83V45.8h1.76a3.06,3.06,0,0,0,3.06-3.06V31Z"/></clipPath></defs><path class="cls-2" d="M1.5,31V42.74A3.06,3.06,0,0,0,4.56,45.8H6.32V78.49A10.82,10.82,0,0,0,17.15,89.32H309.5a10.83,10.83,0,0,0,10.83-10.83V45.8h1.76a3.06,3.06,0,0,0,3.06-3.06V31Z"/><path class="cls-3" d="M309.5,90.82H17.15A12.34,12.34,0,0,1,4.82,78.49V47.3H4.56A4.56,4.56,0,0,1,0,42.74V29.54H326.65v13.2a4.56,4.56,0,0,1-4.56,4.56h-.26V78.49A12.34,12.34,0,0,1,309.5,90.82ZM3,32.54v10.2A1.56,1.56,0,0,0,4.56,44.3H7.82V78.49a9.33,9.33,0,0,0,9.33,9.33H309.5a9.33,9.33,0,0,0,9.33-9.33V44.3h3.26a1.56,1.56,0,0,0,1.56-1.56V32.54Z"/><path class="cls-2" d="M325.15,31H1.5L10.92,5.19A5.62,5.62,0,0,1,16.2,1.5H310.45a5.59,5.59,0,0,1,5.27,3.69Z"/><path class="cls-3" d="M327.29,32.54H-.64L9.52,4.67A7.12,7.12,0,0,1,16.2,0H310.45a7.13,7.13,0,0,1,6.68,4.67Zm-323.65-3H323L314.31,5.7A4.12,4.12,0,0,0,310.45,3H16.2a4.13,4.13,0,0,0-3.87,2.7Z"/><g class="cls-4"><polygon class="cls-5" points="15.29 55.19 -1.54 55.19 -1.54 47.29 1.46 47.29 1.46 52.19 12.29 52.19 12.29 47.29 15.29 47.29 15.29 55.19"/><polygon class="cls-5" points="37.64 55.19 20.81 55.19 20.81 47.29 23.81 47.29 23.81 52.19 34.64 52.19 34.64 47.29 37.64 47.29 37.64 55.19"/><polygon class="cls-5" points="26.46 62.49 9.63 62.49 9.63 54.59 12.63 54.59 12.63 59.49 23.46 59.49 23.46 54.59 26.46 54.59 26.46 62.49"/><polygon class="cls-5" points="59.99 55.19 43.16 55.19 43.16 47.29 46.16 47.29 46.16 52.19 56.99 52.19 56.99 47.29 59.99 47.29 59.99 55.19"/><polygon class="cls-5" points="48.81 62.49 31.98 62.49 31.98 54.59 34.98 54.59 34.98 59.49 45.81 59.49 45.81 54.59 48.81 54.59 48.81 62.49"/><polygon class="cls-5" points="82.34 55.19 65.51 55.19 65.51 47.29 68.51 47.29 68.51 52.19 79.34 52.19 79.34 47.29 82.34 47.29 82.34 55.19"/><polygon class="cls-5" points="71.16 62.49 54.33 62.49 54.33 54.59 57.33 54.59 57.33 59.49 68.16 59.49 68.16 54.59 71.16 54.59 71.16 62.49"/><polygon class="cls-5" points="104.69 55.19 87.86 55.19 87.86 47.29 90.86 47.29 90.86 52.19 101.69 52.19 101.69 47.29 104.69 47.29 104.69 55.19"/><polygon class="cls-5" points="93.51 62.49 76.68 62.49 76.68 54.59 79.68 54.59 79.68 59.49 90.51 59.49 90.51 54.59 93.51 54.59 93.51 62.49"/><polygon class="cls-5" points="127.04 55.19 110.21 55.19 110.21 47.29 113.21 47.29 113.21 52.19 124.04 52.19 124.04 47.29 127.04 47.29 127.04 55.19"/><polygon class="cls-5" points="115.86 62.49 99.03 62.49 99.03 54.59 102.03 54.59 102.03 59.49 112.86 59.49 112.86 54.59 115.86 54.59 115.86 62.49"/><polygon class="cls-5" points="149.39 55.19 132.56 55.19 132.56 47.29 135.56 47.29 135.56 52.19 146.39 52.19 146.39 47.29 149.39 47.29 149.39 55.19"/><polygon class="cls-5" points="138.21 62.49 121.38 62.49 121.38 54.59 124.38 54.59 124.38 59.49 135.21 59.49 135.21 54.59 138.21 54.59 138.21 62.49"/><polygon class="cls-5" points="171.74 55.19 154.91 55.19 154.91 47.29 157.91 47.29 157.91 52.19 168.74 52.19 168.74 47.29 171.74 47.29 171.74 55.19"/><polygon class="cls-5" points="160.56 62.49 143.73 62.49 143.73 54.59 146.73 54.59 146.73 59.49 157.56 59.49 157.56 54.59 160.56 54.59 160.56 62.49"/><polygon class="cls-5" points="194.09 55.19 177.26 55.19 177.26 47.29 180.26 47.29 180.26 52.19 191.09 52.19 191.09 47.29 194.09 47.29 194.09 55.19"/><polygon class="cls-5" points="182.91 62.49 166.08 62.49 166.08 54.59 169.08 54.59 169.08 59.49 179.91 59.49 179.91 54.59 182.91 54.59 182.91 62.49"/><polygon class="cls-5" points="216.44 55.19 199.61 55.19 199.61 47.29 202.61 47.29 202.61 52.19 213.44 52.19 213.44 47.29 216.44 47.29 216.44 55.19"/><polygon class="cls-5" points="205.26 62.49 188.43 62.49 188.43 54.59 191.43 54.59 191.43 59.49 202.26 59.49 202.26 54.59 205.26 54.59 205.26 62.49"/><polygon class="cls-5" points="238.79 55.19 221.96 55.19 221.96 47.29 224.96 47.29 224.96 52.19 235.79 52.19 235.79 47.29 238.79 47.29 238.79 55.19"/><polygon class="cls-5" points="227.61 62.49 210.78 62.49 210.78 54.59 213.78 54.59 213.78 59.49 224.61 59.49 224.61 54.59 227.61 54.59 227.61 62.49"/><polygon class="cls-5" points="261.14 55.19 244.31 55.19 244.31 47.29 247.31 47.29 247.31 52.19 258.14 52.19 258.14 47.29 261.14 47.29 261.14 55.19"/><polygon class="cls-5" points="249.96 62.49 233.13 62.49 233.13 54.59 236.13 54.59 236.13 59.49 246.96 59.49 246.96 54.59 249.96 54.59 249.96 62.49"/><polygon class="cls-5" points="283.49 55.19 266.66 55.19 266.66 47.29 269.66 47.29 269.66 52.19 280.49 52.19 280.49 47.29 283.49 47.29 283.49 55.19"/><polygon class="cls-5" points="272.31 62.49 255.48 62.49 255.48 54.59 258.48 54.59 258.48 59.49 269.31 59.49 269.31 54.59 272.31 54.59 272.31 62.49"/><polygon class="cls-5" points="305.84 55.19 289.01 55.19 289.01 47.29 292.01 47.29 292.01 52.19 302.84 52.19 302.84 47.29 305.84 47.29 305.84 55.19"/><polygon class="cls-5" points="294.66 62.49 277.83 62.49 277.83 54.59 280.83 54.59 280.83 59.49 291.66 59.49 291.66 54.59 294.66 54.59 294.66 62.49"/><polygon class="cls-5" points="328.19 55.19 311.36 55.19 311.36 47.29 314.36 47.29 314.36 52.19 325.19 52.19 325.19 47.29 328.19 47.29 328.19 55.19"/><polygon class="cls-5" points="317.01 62.49 300.18 62.49 300.18 54.59 303.18 54.59 303.18 59.49 314.01 59.49 314.01 54.59 317.01 54.59 317.01 62.49"/><polygon class="cls-5" points="15.29 70.39 -1.54 70.39 -1.54 62.48 1.46 62.48 1.46 67.39 12.29 67.39 12.29 62.48 15.29 62.48 15.29 70.39"/><polygon class="cls-5" points="37.64 70.39 20.81 70.39 20.81 62.48 23.81 62.48 23.81 67.39 34.64 67.39 34.64 62.48 37.64 62.48 37.64 70.39"/><polygon class="cls-5" points="26.46 77.69 9.63 77.69 9.63 69.78 12.63 69.78 12.63 74.69 23.46 74.69 23.46 69.78 26.46 69.78 26.46 77.69"/><polygon class="cls-5" points="59.99 70.39 43.16 70.39 43.16 62.48 46.16 62.48 46.16 67.39 56.99 67.39 56.99 62.48 59.99 62.48 59.99 70.39"/><polygon class="cls-5" points="48.81 77.69 31.98 77.69 31.98 69.78 34.98 69.78 34.98 74.69 45.81 74.69 45.81 69.78 48.81 69.78 48.81 77.69"/><polygon class="cls-5" points="82.34 70.39 65.51 70.39 65.51 62.48 68.51 62.48 68.51 67.39 79.34 67.39 79.34 62.48 82.34 62.48 82.34 70.39"/><polygon class="cls-5" points="71.16 77.69 54.33 77.69 54.33 69.78 57.33 69.78 57.33 74.69 68.16 74.69 68.16 69.78 71.16 69.78 71.16 77.69"/><polygon class="cls-5" points="104.69 70.39 87.86 70.39 87.86 62.48 90.86 62.48 90.86 67.39 101.69 67.39 101.69 62.48 104.69 62.48 104.69 70.39"/><polygon class="cls-5" points="93.51 77.69 76.68 77.69 76.68 69.78 79.68 69.78 79.68 74.69 90.51 74.69 90.51 69.78 93.51 69.78 93.51 77.69"/><polygon class="cls-5" points="127.04 70.39 110.21 70.39 110.21 62.48 113.21 62.48 113.21 67.39 124.04 67.39 124.04 62.48 127.04 62.48 127.04 70.39"/><polygon class="cls-5" points="115.86 77.69 99.03 77.69 99.03 69.78 102.03 69.78 102.03 74.69 112.86 74.69 112.86 69.78 115.86 69.78 115.86 77.69"/><polygon class="cls-5" points="149.39 70.39 132.56 70.39 132.56 62.48 135.56 62.48 135.56 67.39 146.39 67.39 146.39 62.48 149.39 62.48 149.39 70.39"/><polygon class="cls-5" points="138.21 77.69 121.38 77.69 121.38 69.78 124.38 69.78 124.38 74.69 135.21 74.69 135.21 69.78 138.21 69.78 138.21 77.69"/><polygon class="cls-5" points="171.74 70.39 154.91 70.39 154.91 62.48 157.91 62.48 157.91 67.39 168.74 67.39 168.74 62.48 171.74 62.48 171.74 70.39"/><polygon class="cls-5" points="160.56 77.69 143.73 77.69 143.73 69.78 146.73 69.78 146.73 74.69 157.56 74.69 157.56 69.78 160.56 69.78 160.56 77.69"/><polygon class="cls-5" points="194.09 70.39 177.26 70.39 177.26 62.48 180.26 62.48 180.26 67.39 191.09 67.39 191.09 62.48 194.09 62.48 194.09 70.39"/><polygon class="cls-5" points="182.91 77.69 166.08 77.69 166.08 69.78 169.08 69.78 169.08 74.69 179.91 74.69 179.91 69.78 182.91 69.78 182.91 77.69"/><polygon class="cls-5" points="216.44 70.39 199.61 70.39 199.61 62.48 202.61 62.48 202.61 67.39 213.44 67.39 213.44 62.48 216.44 62.48 216.44 70.39"/><polygon class="cls-5" points="205.26 77.69 188.43 77.69 188.43 69.78 191.43 69.78 191.43 74.69 202.26 74.69 202.26 69.78 205.26 69.78 205.26 77.69"/><polygon class="cls-5" points="238.79 70.39 221.96 70.39 221.96 62.48 224.96 62.48 224.96 67.39 235.79 67.39 235.79 62.48 238.79 62.48 238.79 70.39"/><polygon class="cls-5" points="227.61 77.69 210.78 77.69 210.78 69.78 213.78 69.78 213.78 74.69 224.61 74.69 224.61 69.78 227.61 69.78 227.61 77.69"/><polygon class="cls-5" points="261.14 70.39 244.31 70.39 244.31 62.48 247.31 62.48 247.31 67.39 258.14 67.39 258.14 62.48 261.14 62.48 261.14 70.39"/><polygon class="cls-5" points="249.96 77.69 233.13 77.69 233.13 69.78 236.13 69.78 236.13 74.69 246.96 74.69 246.96 69.78 249.96 69.78 249.96 77.69"/><polygon class="cls-5" points="283.49 70.39 266.66 70.39 266.66 62.48 269.66 62.48 269.66 67.39 280.49 67.39 280.49 62.48 283.49 62.48 283.49 70.39"/><polygon class="cls-5" points="272.31 77.69 255.48 77.69 255.48 69.78 258.48 69.78 258.48 74.69 269.31 74.69 269.31 69.78 272.31 69.78 272.31 77.69"/><polygon class="cls-5" points="305.84 70.39 289.01 70.39 289.01 62.48 292.01 62.48 292.01 67.39 302.84 67.39 302.84 62.48 305.84 62.48 305.84 70.39"/><polygon class="cls-5" points="294.66 77.69 277.83 77.69 277.83 69.78 280.83 69.78 280.83 74.69 291.66 74.69 291.66 69.78 294.66 69.78 294.66 77.69"/><polygon class="cls-5" points="328.19 70.39 311.36 70.39 311.36 62.48 314.36 62.48 314.36 67.39 325.19 67.39 325.19 62.48 328.19 62.48 328.19 70.39"/><polygon class="cls-5" points="317.01 77.69 300.18 77.69 300.18 69.78 303.18 69.78 303.18 74.69 314.01 74.69 314.01 69.78 317.01 69.78 317.01 77.69"/><polygon class="cls-5" points="15.29 85.58 -1.54 85.58 -1.54 77.67 1.46 77.67 1.46 82.58 12.29 82.58 12.29 77.67 15.29 77.67 15.29 85.58"/><polygon class="cls-5" points="37.64 85.58 20.81 85.58 20.81 77.67 23.81 77.67 23.81 82.58 34.64 82.58 34.64 77.67 37.64 77.67 37.64 85.58"/><polygon class="cls-5" points="26.46 92.88 9.63 92.88 9.63 84.97 12.63 84.97 12.63 89.88 23.46 89.88 23.46 84.97 26.46 84.97 26.46 92.88"/><polygon class="cls-5" points="59.99 85.58 43.16 85.58 43.16 77.67 46.16 77.67 46.16 82.58 56.99 82.58 56.99 77.67 59.99 77.67 59.99 85.58"/><polygon class="cls-5" points="48.81 92.88 31.98 92.88 31.98 84.97 34.98 84.97 34.98 89.88 45.81 89.88 45.81 84.97 48.81 84.97 48.81 92.88"/><polygon class="cls-5" points="82.34 85.58 65.51 85.58 65.51 77.67 68.51 77.67 68.51 82.58 79.34 82.58 79.34 77.67 82.34 77.67 82.34 85.58"/><polygon class="cls-5" points="71.16 92.88 54.33 92.88 54.33 84.97 57.33 84.97 57.33 89.88 68.16 89.88 68.16 84.97 71.16 84.97 71.16 92.88"/><polygon class="cls-5" points="104.69 85.58 87.86 85.58 87.86 77.67 90.86 77.67 90.86 82.58 101.69 82.58 101.69 77.67 104.69 77.67 104.69 85.58"/><polygon class="cls-5" points="93.51 92.88 76.68 92.88 76.68 84.97 79.68 84.97 79.68 89.88 90.51 89.88 90.51 84.97 93.51 84.97 93.51 92.88"/><polygon class="cls-5" points="127.04 85.58 110.21 85.58 110.21 77.67 113.21 77.67 113.21 82.58 124.04 82.58 124.04 77.67 127.04 77.67 127.04 85.58"/><polygon class="cls-5" points="115.86 92.88 99.03 92.88 99.03 84.97 102.03 84.97 102.03 89.88 112.86 89.88 112.86 84.97 115.86 84.97 115.86 92.88"/><polygon class="cls-5" points="149.39 85.58 132.56 85.58 132.56 77.67 135.56 77.67 135.56 82.58 146.39 82.58 146.39 77.67 149.39 77.67 149.39 85.58"/><polygon class="cls-5" points="138.21 92.88 121.38 92.88 121.38 84.97 124.38 84.97 124.38 89.88 135.21 89.88 135.21 84.97 138.21 84.97 138.21 92.88"/><polygon class="cls-5" points="171.74 85.58 154.91 85.58 154.91 77.67 157.91 77.67 157.91 82.58 168.74 82.58 168.74 77.67 171.74 77.67 171.74 85.58"/><polygon class="cls-5" points="160.56 92.88 143.73 92.88 143.73 84.97 146.73 84.97 146.73 89.88 157.56 89.88 157.56 84.97 160.56 84.97 160.56 92.88"/><polygon class="cls-5" points="194.09 85.58 177.26 85.58 177.26 77.67 180.26 77.67 180.26 82.58 191.09 82.58 191.09 77.67 194.09 77.67 194.09 85.58"/><polygon class="cls-5" points="182.91 92.88 166.08 92.88 166.08 84.97 169.08 84.97 169.08 89.88 179.91 89.88 179.91 84.97 182.91 84.97 182.91 92.88"/><polygon class="cls-5" points="216.44 85.58 199.61 85.58 199.61 77.67 202.61 77.67 202.61 82.58 213.44 82.58 213.44 77.67 216.44 77.67 216.44 85.58"/><polygon class="cls-5" points="205.26 92.88 188.43 92.88 188.43 84.97 191.43 84.97 191.43 89.88 202.26 89.88 202.26 84.97 205.26 84.97 205.26 92.88"/><polygon class="cls-5" points="238.79 85.58 221.96 85.58 221.96 77.67 224.96 77.67 224.96 82.58 235.79 82.58 235.79 77.67 238.79 77.67 238.79 85.58"/><polygon class="cls-5" points="227.61 92.88 210.78 92.88 210.78 84.97 213.78 84.97 213.78 89.88 224.61 89.88 224.61 84.97 227.61 84.97 227.61 92.88"/><polygon class="cls-5" points="261.14 85.58 244.31 85.58 244.31 77.67 247.31 77.67 247.31 82.58 258.14 82.58 258.14 77.67 261.14 77.67 261.14 85.58"/><polygon class="cls-5" points="249.96 92.88 233.13 92.88 233.13 84.97 236.13 84.97 236.13 89.88 246.96 89.88 246.96 84.97 249.96 84.97 249.96 92.88"/><polygon class="cls-5" points="283.49 85.58 266.66 85.58 266.66 77.67 269.66 77.67 269.66 82.58 280.49 82.58 280.49 77.67 283.49 77.67 283.49 85.58"/><polygon class="cls-5" points="272.31 92.88 255.48 92.88 255.48 84.97 258.48 84.97 258.48 89.88 269.31 89.88 269.31 84.97 272.31 84.97 272.31 92.88"/><polygon class="cls-5" points="305.84 85.58 289.01 85.58 289.01 77.67 292.01 77.67 292.01 82.58 302.84 82.58 302.84 77.67 305.84 77.67 305.84 85.58"/><polygon class="cls-5" points="294.66 92.88 277.83 92.88 277.83 84.97 280.83 84.97 280.83 89.88 291.66 89.88 291.66 84.97 294.66 84.97 294.66 92.88"/><polygon class="cls-5" points="328.19 85.58 311.36 85.58 311.36 77.67 314.36 77.67 314.36 82.58 325.19 82.58 325.19 77.67 328.19 77.67 328.19 85.58"/><polygon class="cls-5" points="317.01 92.88 300.18 92.88 300.18 84.97 303.18 84.97 303.18 89.88 314.01 89.88 314.01 84.97 317.01 84.97 317.01 92.88"/><polygon class="cls-5" points="15.29 9.62 -1.54 9.62 -1.54 1.71 1.46 1.71 1.46 6.62 12.29 6.62 12.29 1.71 15.29 1.71 15.29 9.62"/><polygon class="cls-5" points="37.64 9.62 20.81 9.62 20.81 1.71 23.81 1.71 23.81 6.62 34.64 6.62 34.64 1.71 37.64 1.71 37.64 9.62"/><polygon class="cls-5" points="26.46 16.92 9.63 16.92 9.63 9.02 12.63 9.02 12.63 13.92 23.46 13.92 23.46 9.02 26.46 9.02 26.46 16.92"/><polygon class="cls-5" points="59.99 9.62 43.16 9.62 43.16 1.71 46.16 1.71 46.16 6.62 56.99 6.62 56.99 1.71 59.99 1.71 59.99 9.62"/><polygon class="cls-5" points="48.81 16.92 31.98 16.92 31.98 9.02 34.98 9.02 34.98 13.92 45.81 13.92 45.81 9.02 48.81 9.02 48.81 16.92"/><polygon class="cls-5" points="82.34 9.62 65.51 9.62 65.51 1.71 68.51 1.71 68.51 6.62 79.34 6.62 79.34 1.71 82.34 1.71 82.34 9.62"/><polygon class="cls-5" points="71.16 16.92 54.33 16.92 54.33 9.02 57.33 9.02 57.33 13.92 68.16 13.92 68.16 9.02 71.16 9.02 71.16 16.92"/><polygon class="cls-5" points="104.69 9.62 87.86 9.62 87.86 1.71 90.86 1.71 90.86 6.62 101.69 6.62 101.69 1.71 104.69 1.71 104.69 9.62"/><polygon class="cls-5" points="93.51 16.92 76.68 16.92 76.68 9.02 79.68 9.02 79.68 13.92 90.51 13.92 90.51 9.02 93.51 9.02 93.51 16.92"/><polygon class="cls-5" points="127.04 9.62 110.21 9.62 110.21 1.71 113.21 1.71 113.21 6.62 124.04 6.62 124.04 1.71 127.04 1.71 127.04 9.62"/><polygon class="cls-5" points="115.86 16.92 99.03 16.92 99.03 9.02 102.03 9.02 102.03 13.92 112.86 13.92 112.86 9.02 115.86 9.02 115.86 16.92"/><polygon class="cls-5" points="149.39 9.62 132.56 9.62 132.56 1.71 135.56 1.71 135.56 6.62 146.39 6.62 146.39 1.71 149.39 1.71 149.39 9.62"/><polygon class="cls-5" points="138.21 16.92 121.38 16.92 121.38 9.02 124.38 9.02 124.38 13.92 135.21 13.92 135.21 9.02 138.21 9.02 138.21 16.92"/><polygon class="cls-5" points="171.74 9.62 154.91 9.62 154.91 1.71 157.91 1.71 157.91 6.62 168.74 6.62 168.74 1.71 171.74 1.71 171.74 9.62"/><polygon class="cls-5" points="160.56 16.92 143.73 16.92 143.73 9.02 146.73 9.02 146.73 13.92 157.56 13.92 157.56 9.02 160.56 9.02 160.56 16.92"/><polygon class="cls-5" points="194.09 9.62 177.26 9.62 177.26 1.71 180.26 1.71 180.26 6.62 191.09 6.62 191.09 1.71 194.09 1.71 194.09 9.62"/><polygon class="cls-5" points="182.91 16.92 166.08 16.92 166.08 9.02 169.08 9.02 169.08 13.92 179.91 13.92 179.91 9.02 182.91 9.02 182.91 16.92"/><polygon class="cls-5" points="216.44 9.62 199.61 9.62 199.61 1.71 202.61 1.71 202.61 6.62 213.44 6.62 213.44 1.71 216.44 1.71 216.44 9.62"/><polygon class="cls-5" points="205.26 16.92 188.43 16.92 188.43 9.02 191.43 9.02 191.43 13.92 202.26 13.92 202.26 9.02 205.26 9.02 205.26 16.92"/><polygon class="cls-5" points="238.79 9.62 221.96 9.62 221.96 1.71 224.96 1.71 224.96 6.62 235.79 6.62 235.79 1.71 238.79 1.71 238.79 9.62"/><polygon class="cls-5" points="227.61 16.92 210.78 16.92 210.78 9.02 213.78 9.02 213.78 13.92 224.61 13.92 224.61 9.02 227.61 9.02 227.61 16.92"/><polygon class="cls-5" points="261.14 9.62 244.31 9.62 244.31 1.71 247.31 1.71 247.31 6.62 258.14 6.62 258.14 1.71 261.14 1.71 261.14 9.62"/><polygon class="cls-5" points="249.96 16.92 233.13 16.92 233.13 9.02 236.13 9.02 236.13 13.92 246.96 13.92 246.96 9.02 249.96 9.02 249.96 16.92"/><polygon class="cls-5" points="283.49 9.62 266.66 9.62 266.66 1.71 269.66 1.71 269.66 6.62 280.49 6.62 280.49 1.71 283.49 1.71 283.49 9.62"/><polygon class="cls-5" points="272.31 16.92 255.48 16.92 255.48 9.02 258.48 9.02 258.48 13.92 269.31 13.92 269.31 9.02 272.31 9.02 272.31 16.92"/><polygon class="cls-5" points="305.84 9.62 289.01 9.62 289.01 1.71 292.01 1.71 292.01 6.62 302.84 6.62 302.84 1.71 305.84 1.71 305.84 9.62"/><polygon class="cls-5" points="294.66 16.92 277.83 16.92 277.83 9.02 280.83 9.02 280.83 13.92 291.66 13.92 291.66 9.02 294.66 9.02 294.66 16.92"/><polygon class="cls-5" points="328.19 9.62 311.36 9.62 311.36 1.71 314.36 1.71 314.36 6.62 325.19 6.62 325.19 1.71 328.19 1.71 328.19 9.62"/><polygon class="cls-5" points="317.01 16.92 300.18 16.92 300.18 9.02 303.18 9.02 303.18 13.92 314.01 13.92 314.01 9.02 317.01 9.02 317.01 16.92"/><polygon class="cls-5" points="15.29 24.81 -1.54 24.81 -1.54 16.91 1.46 16.91 1.46 21.81 12.29 21.81 12.29 16.91 15.29 16.91 15.29 24.81"/><polygon class="cls-5" points="37.64 24.81 20.81 24.81 20.81 16.91 23.81 16.91 23.81 21.81 34.64 21.81 34.64 16.91 37.64 16.91 37.64 24.81"/><polygon class="cls-5" points="26.46 32.11 9.63 32.11 9.63 24.21 12.63 24.21 12.63 29.11 23.46 29.11 23.46 24.21 26.46 24.21 26.46 32.11"/><polygon class="cls-5" points="59.99 24.81 43.16 24.81 43.16 16.91 46.16 16.91 46.16 21.81 56.99 21.81 56.99 16.91 59.99 16.91 59.99 24.81"/><polygon class="cls-5" points="48.81 32.11 31.98 32.11 31.98 24.21 34.98 24.21 34.98 29.11 45.81 29.11 45.81 24.21 48.81 24.21 48.81 32.11"/><polygon class="cls-5" points="82.34 24.81 65.51 24.81 65.51 16.91 68.51 16.91 68.51 21.81 79.34 21.81 79.34 16.91 82.34 16.91 82.34 24.81"/><polygon class="cls-5" points="71.16 32.11 54.33 32.11 54.33 24.21 57.33 24.21 57.33 29.11 68.16 29.11 68.16 24.21 71.16 24.21 71.16 32.11"/><polygon class="cls-5" points="104.69 24.81 87.86 24.81 87.86 16.91 90.86 16.91 90.86 21.81 101.69 21.81 101.69 16.91 104.69 16.91 104.69 24.81"/><polygon class="cls-5" points="93.51 32.11 76.68 32.11 76.68 24.21 79.68 24.21 79.68 29.11 90.51 29.11 90.51 24.21 93.51 24.21 93.51 32.11"/><polygon class="cls-5" points="127.04 24.81 110.21 24.81 110.21 16.91 113.21 16.91 113.21 21.81 124.04 21.81 124.04 16.91 127.04 16.91 127.04 24.81"/><polygon class="cls-5" points="115.86 32.11 99.03 32.11 99.03 24.21 102.03 24.21 102.03 29.11 112.86 29.11 112.86 24.21 115.86 24.21 115.86 32.11"/><polygon class="cls-5" points="149.39 24.81 132.56 24.81 132.56 16.91 135.56 16.91 135.56 21.81 146.39 21.81 146.39 16.91 149.39 16.91 149.39 24.81"/><polygon class="cls-5" points="138.21 32.11 121.38 32.11 121.38 24.21 124.38 24.21 124.38 29.11 135.21 29.11 135.21 24.21 138.21 24.21 138.21 32.11"/><polygon class="cls-5" points="171.74 24.81 154.91 24.81 154.91 16.91 157.91 16.91 157.91 21.81 168.74 21.81 168.74 16.91 171.74 16.91 171.74 24.81"/><polygon class="cls-5" points="160.56 32.11 143.73 32.11 143.73 24.21 146.73 24.21 146.73 29.11 157.56 29.11 157.56 24.21 160.56 24.21 160.56 32.11"/><polygon class="cls-5" points="194.09 24.81 177.26 24.81 177.26 16.91 180.26 16.91 180.26 21.81 191.09 21.81 191.09 16.91 194.09 16.91 194.09 24.81"/><polygon class="cls-5" points="182.91 32.11 166.08 32.11 166.08 24.21 169.08 24.21 169.08 29.11 179.91 29.11 179.91 24.21 182.91 24.21 182.91 32.11"/><polygon class="cls-5" points="216.44 24.81 199.61 24.81 199.61 16.91 202.61 16.91 202.61 21.81 213.44 21.81 213.44 16.91 216.44 16.91 216.44 24.81"/><polygon class="cls-5" points="205.26 32.11 188.43 32.11 188.43 24.21 191.43 24.21 191.43 29.11 202.26 29.11 202.26 24.21 205.26 24.21 205.26 32.11"/><polygon class="cls-5" points="238.79 24.81 221.96 24.81 221.96 16.91 224.96 16.91 224.96 21.81 235.79 21.81 235.79 16.91 238.79 16.91 238.79 24.81"/><polygon class="cls-5" points="227.61 32.11 210.78 32.11 210.78 24.21 213.78 24.21 213.78 29.11 224.61 29.11 224.61 24.21 227.61 24.21 227.61 32.11"/><polygon class="cls-5" points="261.14 24.81 244.31 24.81 244.31 16.91 247.31 16.91 247.31 21.81 258.14 21.81 258.14 16.91 261.14 16.91 261.14 24.81"/><polygon class="cls-5" points="249.96 32.11 233.13 32.11 233.13 24.21 236.13 24.21 236.13 29.11 246.96 29.11 246.96 24.21 249.96 24.21 249.96 32.11"/><polygon class="cls-5" points="283.49 24.81 266.66 24.81 266.66 16.91 269.66 16.91 269.66 21.81 280.49 21.81 280.49 16.91 283.49 16.91 283.49 24.81"/><polygon class="cls-5" points="272.31 32.11 255.48 32.11 255.48 24.21 258.48 24.21 258.48 29.11 269.31 29.11 269.31 24.21 272.31 24.21 272.31 32.11"/><polygon class="cls-5" points="305.84 24.81 289.01 24.81 289.01 16.91 292.01 16.91 292.01 21.81 302.84 21.81 302.84 16.91 305.84 16.91 305.84 24.81"/><polygon class="cls-5" points="294.66 32.11 277.83 32.11 277.83 24.21 280.83 24.21 280.83 29.11 291.66 29.11 291.66 24.21 294.66 24.21 294.66 32.11"/><polygon class="cls-5" points="328.19 24.81 311.36 24.81 311.36 16.91 314.36 16.91 314.36 21.81 325.19 21.81 325.19 16.91 328.19 16.91 328.19 24.81"/><polygon class="cls-5" points="317.01 32.11 300.18 32.11 300.18 24.21 303.18 24.21 303.18 29.11 314.01 29.11 314.01 24.21 317.01 24.21 317.01 32.11"/><polygon class="cls-5" points="15.29 40 -1.54 40 -1.54 32.1 1.46 32.1 1.46 37 12.29 37 12.29 32.1 15.29 32.1 15.29 40"/><polygon class="cls-5" points="37.64 40 20.81 40 20.81 32.1 23.81 32.1 23.81 37 34.64 37 34.64 32.1 37.64 32.1 37.64 40"/><polygon class="cls-5" points="26.46 47.3 9.63 47.3 9.63 39.4 12.63 39.4 12.63 44.3 23.46 44.3 23.46 39.4 26.46 39.4 26.46 47.3"/><polygon class="cls-5" points="59.99 40 43.16 40 43.16 32.1 46.16 32.1 46.16 37 56.99 37 56.99 32.1 59.99 32.1 59.99 40"/><polygon class="cls-5" points="48.81 47.3 31.98 47.3 31.98 39.4 34.98 39.4 34.98 44.3 45.81 44.3 45.81 39.4 48.81 39.4 48.81 47.3"/><polygon class="cls-5" points="82.34 40 65.51 40 65.51 32.1 68.51 32.1 68.51 37 79.34 37 79.34 32.1 82.34 32.1 82.34 40"/><polygon class="cls-5" points="71.16 47.3 54.33 47.3 54.33 39.4 57.33 39.4 57.33 44.3 68.16 44.3 68.16 39.4 71.16 39.4 71.16 47.3"/><polygon class="cls-5" points="104.69 40 87.86 40 87.86 32.1 90.86 32.1 90.86 37 101.69 37 101.69 32.1 104.69 32.1 104.69 40"/><polygon class="cls-5" points="93.51 47.3 76.68 47.3 76.68 39.4 79.68 39.4 79.68 44.3 90.51 44.3 90.51 39.4 93.51 39.4 93.51 47.3"/><polygon class="cls-5" points="127.04 40 110.21 40 110.21 32.1 113.21 32.1 113.21 37 124.04 37 124.04 32.1 127.04 32.1 127.04 40"/><polygon class="cls-5" points="115.86 47.3 99.03 47.3 99.03 39.4 102.03 39.4 102.03 44.3 112.86 44.3 112.86 39.4 115.86 39.4 115.86 47.3"/><polygon class="cls-5" points="149.39 40 132.56 40 132.56 32.1 135.56 32.1 135.56 37 146.39 37 146.39 32.1 149.39 32.1 149.39 40"/><polygon class="cls-5" points="138.21 47.3 121.38 47.3 121.38 39.4 124.38 39.4 124.38 44.3 135.21 44.3 135.21 39.4 138.21 39.4 138.21 47.3"/><polygon class="cls-5" points="171.74 40 154.91 40 154.91 32.1 157.91 32.1 157.91 37 168.74 37 168.74 32.1 171.74 32.1 171.74 40"/><polygon class="cls-5" points="160.56 47.3 143.73 47.3 143.73 39.4 146.73 39.4 146.73 44.3 157.56 44.3 157.56 39.4 160.56 39.4 160.56 47.3"/><polygon class="cls-5" points="194.09 40 177.26 40 177.26 32.1 180.26 32.1 180.26 37 191.09 37 191.09 32.1 194.09 32.1 194.09 40"/><polygon class="cls-5" points="182.91 47.3 166.08 47.3 166.08 39.4 169.08 39.4 169.08 44.3 179.91 44.3 179.91 39.4 182.91 39.4 182.91 47.3"/><polygon class="cls-5" points="216.44 40 199.61 40 199.61 32.1 202.61 32.1 202.61 37 213.44 37 213.44 32.1 216.44 32.1 216.44 40"/><polygon class="cls-5" points="205.26 47.3 188.43 47.3 188.43 39.4 191.43 39.4 191.43 44.3 202.26 44.3 202.26 39.4 205.26 39.4 205.26 47.3"/><polygon class="cls-5" points="238.79 40 221.96 40 221.96 32.1 224.96 32.1 224.96 37 235.79 37 235.79 32.1 238.79 32.1 238.79 40"/><polygon class="cls-5" points="227.61 47.3 210.78 47.3 210.78 39.4 213.78 39.4 213.78 44.3 224.61 44.3 224.61 39.4 227.61 39.4 227.61 47.3"/><polygon class="cls-5" points="261.14 40 244.31 40 244.31 32.1 247.31 32.1 247.31 37 258.14 37 258.14 32.1 261.14 32.1 261.14 40"/><polygon class="cls-5" points="249.96 47.3 233.13 47.3 233.13 39.4 236.13 39.4 236.13 44.3 246.96 44.3 246.96 39.4 249.96 39.4 249.96 47.3"/><polygon class="cls-5" points="283.49 40 266.66 40 266.66 32.1 269.66 32.1 269.66 37 280.49 37 280.49 32.1 283.49 32.1 283.49 40"/><polygon class="cls-5" points="272.31 47.3 255.48 47.3 255.48 39.4 258.48 39.4 258.48 44.3 269.31 44.3 269.31 39.4 272.31 39.4 272.31 47.3"/><polygon class="cls-5" points="305.84 40 289.01 40 289.01 32.1 292.01 32.1 292.01 37 302.84 37 302.84 32.1 305.84 32.1 305.84 40"/><polygon class="cls-5" points="294.66 47.3 277.83 47.3 277.83 39.4 280.83 39.4 280.83 44.3 291.66 44.3 291.66 39.4 294.66 39.4 294.66 47.3"/><polygon class="cls-5" points="328.19 40 311.36 40 311.36 32.1 314.36 32.1 314.36 37 325.19 37 325.19 32.1 328.19 32.1 328.19 40"/><polygon class="cls-5" points="317.01 47.3 300.18 47.3 300.18 39.4 303.18 39.4 303.18 44.3 314.01 44.3 314.01 39.4 317.01 39.4 317.01 47.3"/></g><path class="cls-3" d="M309.5,90.82H17.15A12.34,12.34,0,0,1,4.82,78.49V47.3H4.56A4.56,4.56,0,0,1,0,42.74V29.54H326.65v13.2a4.56,4.56,0,0,1-4.56,4.56h-.26V78.49A12.34,12.34,0,0,1,309.5,90.82ZM3,32.54v10.2A1.56,1.56,0,0,0,4.56,44.3H7.82V78.49a9.33,9.33,0,0,0,9.33,9.33H309.5a9.33,9.33,0,0,0,9.33-9.33V44.3h3.26a1.56,1.56,0,0,0,1.56-1.56V32.54Z"/></svg>