<svg id="레이어_1" data-name="레이어 1" xmlns="http://www.w3.org/2000/svg" xmlns:xlink="http://www.w3.org/1999/xlink" viewBox="0 0 280.5 199.27"><defs><style>.cls-1{fill:none;}.cls-2{fill:#3a3738;}.cls-3{fill:#040000;}.cls-4{fill:url(#무제_그라디언트_12);}.cls-5{fill:#161616;}.cls-6{opacity:0.4;}.cls-7{clip-path:url(#clip-path);}.cls-8{fill:url(#무제_그라디언트_3);}</style><linearGradient id="무제_그라디언트_12" x1="140.25" y1="182.02" x2="140.25" y2="273.69" gradientUnits="userSpaceOnUse"><stop offset="0"/><stop offset="1" stop-opacity="0"/></linearGradient><clipPath id="clip-path"><rect class="cls-1" x="65.52" y="-26.41" width="149.46" height="241.39" rx="12.66" transform="translate(234.54 -45.96) rotate(90)"/></clipPath><linearGradient id="무제_그라디언트_3" x1="303.74" y1="-35.61" x2="148.78" y2="259.77" gradientUnits="userSpaceOnUse"><stop offset="0" stop-color="#fff"/><stop offset="0.94" stop-color="#fff" stop-opacity="0"/></linearGradient></defs><rect class="cls-2" x="18.97" y="169.15" width="242.56" height="28.62"/><path class="cls-3" d="M263,199.27H17.47V167.65H263Zm-242.56-3H260V170.65H20.47Z"/><rect class="cls-4" x="18.97" y="169.15" width="242.56" height="28.62"/><rect class="cls-2" x="1.5" y="1.5" width="277.5" height="185.58" rx="32.66"/><path class="cls-3" d="M246.34,188.58H34.16A34.2,34.2,0,0,1,0,154.41V34.16A34.19,34.19,0,0,1,34.16,0H246.34A34.19,34.19,0,0,1,280.5,34.16V154.41A34.2,34.2,0,0,1,246.34,188.58ZM34.16,3A31.2,31.2,0,0,0,3,34.16V154.41a31.2,31.2,0,0,0,31.16,31.17H246.34a31.2,31.2,0,0,0,31.16-31.17V34.16A31.2,31.2,0,0,0,246.34,3Z"/><rect class="cls-3" x="65.52" y="-26.41" width="149.46" height="241.39" rx="12.66" transform="translate(234.54 -45.96) rotate(90)"/><rect class="cls-5" x="70.04" y="-21.89" width="140.43" height="232.36" rx="7.66" transform="translate(234.54 -45.96) rotate(90)"/><g class="cls-6"><g class="cls-7"><polygon class="cls-8" points="291.38 183.46 66.42 183.46 176.6 11.24 401.55 11.24 291.38 183.46"/></g></g></svg>