<svg id="레이어_1" data-name="레이어 1" xmlns="http://www.w3.org/2000/svg" xmlns:xlink="http://www.w3.org/1999/xlink" viewBox="0 0 1080 1920"><defs><style>.cls-1{fill:none;}.cls-2{clip-path:url(#clip-path);}.cls-3{fill:#c18563;}.cls-3,.cls-4{stroke:#a46c4a;stroke-miterlimit:10;stroke-width:3px;}.cls-4{fill:#c58968;}.cls-5{fill:#f7efe5;}.cls-6{fill:#ab835a;}.cls-7{fill:#5e3618;}.cls-8{fill:#9b6d34;}</style><clipPath id="clip-path"><path class="cls-1" d="M-587.57-1686.32H811.25a14.18,14.18,0,0,1,14.18,14.18v971.65a14.18,14.18,0,0,1-14.18,14.18H-587.57a14.18,14.18,0,0,1-14.18-14.18v-971.65A14.17,14.17,0,0,1-587.57-1686.32Z" transform="translate(-1074.47 -1298.16) rotate(90)"/></clipPath></defs><g class="cls-2"><rect class="cls-3" x="-214.6" y="-23.34" width="299.65" height="69.91"/><rect class="cls-3" x="85.05" y="-23.34" width="299.65" height="69.91"/><rect class="cls-4" x="384.7" y="-23.34" width="299.65" height="69.91"/></g><rect class="cls-5" width="1080" height="1118.78"/><rect class="cls-6" width="1080" height="1920"/><rect class="cls-7" x="-400" y="440" width="1880" height="1040" rx="34.18" transform="translate(1500 420) rotate(90)"/><path class="cls-8" d="M-365.82,450H1445.83A24.18,24.18,0,0,1,1470,474.18v971.65a24.17,24.17,0,0,1-24.17,24.17H-365.82A24.18,24.18,0,0,1-390,1445.82V474.17A24.17,24.17,0,0,1-365.82,450Z" transform="translate(1500 420) rotate(90)"/></svg>