<svg id="레이어_1" data-name="레이어 1" xmlns="http://www.w3.org/2000/svg" xmlns:xlink="http://www.w3.org/1999/xlink" viewBox="0 0 326.65 90.82"><defs><style>.cls-1,.cls-6,.cls-7,.cls-8{fill:none;}.cls-2,.cls-3{fill:#c47b42;}.cls-2,.cls-7{stroke:#040000;}.cls-2,.cls-6,.cls-7,.cls-8{stroke-miterlimit:10;stroke-width:3px;}.cls-4{fill:#040000;}.cls-5{clip-path:url(#clip-path);}.cls-6{stroke:#ad693b;}.cls-8{stroke:#8a522d;}</style><clipPath id="clip-path"><path class="cls-1" d="M1.5,31V42.74A3.06,3.06,0,0,0,4.56,45.8H6.32V78.49A10.83,10.83,0,0,0,17.15,89.32H309.5a10.83,10.83,0,0,0,10.83-10.83V45.8h1.76a3.06,3.06,0,0,0,3.06-3.06V31Z"/></clipPath></defs><path class="cls-2" d="M1.5,31V42.74A3.06,3.06,0,0,0,4.56,45.8H6.32V78.49A10.83,10.83,0,0,0,17.15,89.32H309.5a10.83,10.83,0,0,0,10.83-10.83V45.8h1.76a3.06,3.06,0,0,0,3.06-3.06V31Z"/><path class="cls-3" d="M325.15,31H1.5L10.92,5.19A5.62,5.62,0,0,1,16.2,1.5H310.45a5.59,5.59,0,0,1,5.27,3.69Z"/><path class="cls-4" d="M327.29,32.53H-.64L9.52,4.67A7.12,7.12,0,0,1,16.2,0H310.45a7.13,7.13,0,0,1,6.68,4.67Zm-323.65-3H323L314.31,5.7A4.13,4.13,0,0,0,310.45,3H16.2a4.13,4.13,0,0,0-3.87,2.7Z"/><g class="cls-5"><polyline class="cls-6" points="-0.04 47.29 -0.04 53.69 13.79 53.69 13.79 47.29"/><polyline class="cls-6" points="22.31 47.29 22.31 53.69 36.14 53.69 36.14 47.29"/><polyline class="cls-6" points="11.13 54.59 11.13 60.99 24.96 60.99 24.96 54.59"/><polyline class="cls-6" points="44.66 47.29 44.66 53.69 58.49 53.69 58.49 47.29"/><polyline class="cls-6" points="33.48 54.59 33.48 60.99 47.31 60.99 47.31 54.59"/><polyline class="cls-6" points="67.01 47.29 67.01 53.69 80.84 53.69 80.84 47.29"/><polyline class="cls-6" points="55.83 54.59 55.83 60.99 69.66 60.99 69.66 54.59"/><polyline class="cls-6" points="89.36 47.29 89.36 53.69 103.19 53.69 103.19 47.29"/><polyline class="cls-6" points="78.18 54.59 78.18 60.99 92.01 60.99 92.01 54.59"/><polyline class="cls-6" points="111.71 47.29 111.71 53.69 125.54 53.69 125.54 47.29"/><polyline class="cls-6" points="100.53 54.59 100.53 60.99 114.36 60.99 114.36 54.59"/><polyline class="cls-6" points="134.06 47.29 134.06 53.69 147.89 53.69 147.89 47.29"/><polyline class="cls-6" points="122.88 54.59 122.88 60.99 136.71 60.99 136.71 54.59"/><polyline class="cls-6" points="156.41 47.29 156.41 53.69 170.24 53.69 170.24 47.29"/><polyline class="cls-6" points="145.23 54.59 145.23 60.99 159.06 60.99 159.06 54.59"/><polyline class="cls-6" points="178.76 47.29 178.76 53.69 192.59 53.69 192.59 47.29"/><polyline class="cls-6" points="167.58 54.59 167.58 60.99 181.41 60.99 181.41 54.59"/><polyline class="cls-6" points="201.11 47.29 201.11 53.69 214.94 53.69 214.94 47.29"/><polyline class="cls-6" points="189.93 54.59 189.93 60.99 203.76 60.99 203.76 54.59"/><polyline class="cls-6" points="223.46 47.29 223.46 53.69 237.29 53.69 237.29 47.29"/><polyline class="cls-6" points="212.28 54.59 212.28 60.99 226.11 60.99 226.11 54.59"/><polyline class="cls-6" points="245.81 47.29 245.81 53.69 259.64 53.69 259.64 47.29"/><polyline class="cls-6" points="234.63 54.59 234.63 60.99 248.46 60.99 248.46 54.59"/><polyline class="cls-6" points="268.16 47.29 268.16 53.69 281.99 53.69 281.99 47.29"/><polyline class="cls-6" points="256.98 54.59 256.98 60.99 270.81 60.99 270.81 54.59"/><polyline class="cls-6" points="290.5 47.29 290.5 53.69 304.34 53.69 304.34 47.29"/><polyline class="cls-6" points="279.33 54.59 279.33 60.99 293.16 60.99 293.16 54.59"/><polyline class="cls-6" points="312.86 47.29 312.86 53.69 326.69 53.69 326.69 47.29"/><polyline class="cls-6" points="301.68 54.59 301.68 60.99 315.51 60.99 315.51 54.59"/><polyline class="cls-6" points="-0.04 62.48 -0.04 68.88 13.79 68.88 13.79 62.48"/><polyline class="cls-6" points="22.31 62.48 22.31 68.88 36.14 68.88 36.14 62.48"/><polyline class="cls-6" points="11.13 69.78 11.13 76.19 24.96 76.19 24.96 69.78"/><polyline class="cls-6" points="44.66 62.48 44.66 68.88 58.49 68.88 58.49 62.48"/><polyline class="cls-6" points="33.48 69.78 33.48 76.19 47.31 76.19 47.31 69.78"/><polyline class="cls-6" points="67.01 62.48 67.01 68.88 80.84 68.88 80.84 62.48"/><polyline class="cls-6" points="55.83 69.78 55.83 76.19 69.66 76.19 69.66 69.78"/><polyline class="cls-6" points="89.36 62.48 89.36 68.88 103.19 68.88 103.19 62.48"/><polyline class="cls-6" points="78.18 69.78 78.18 76.19 92.01 76.19 92.01 69.78"/><polyline class="cls-6" points="111.71 62.48 111.71 68.88 125.54 68.88 125.54 62.48"/><polyline class="cls-6" points="100.53 69.78 100.53 76.19 114.36 76.19 114.36 69.78"/><polyline class="cls-6" points="134.06 62.48 134.06 68.88 147.89 68.88 147.89 62.48"/><polyline class="cls-6" points="122.88 69.78 122.88 76.19 136.71 76.19 136.71 69.78"/><polyline class="cls-6" points="156.41 62.48 156.41 68.88 170.24 68.88 170.24 62.48"/><polyline class="cls-6" points="145.23 69.78 145.23 76.19 159.06 76.19 159.06 69.78"/><polyline class="cls-6" points="178.76 62.48 178.76 68.88 192.59 68.88 192.59 62.48"/><polyline class="cls-6" points="167.58 69.78 167.58 76.19 181.41 76.19 181.41 69.78"/><polyline class="cls-6" points="201.11 62.48 201.11 68.88 214.94 68.88 214.94 62.48"/><polyline class="cls-6" points="189.93 69.78 189.93 76.19 203.76 76.19 203.76 69.78"/><polyline class="cls-6" points="223.46 62.48 223.46 68.88 237.29 68.88 237.29 62.48"/><polyline class="cls-6" points="212.28 69.78 212.28 76.19 226.11 76.19 226.11 69.78"/><polyline class="cls-6" points="245.81 62.48 245.81 68.88 259.64 68.88 259.64 62.48"/><polyline class="cls-6" points="234.63 69.78 234.63 76.19 248.46 76.19 248.46 69.78"/><polyline class="cls-6" points="268.16 62.48 268.16 68.88 281.99 68.88 281.99 62.48"/><polyline class="cls-6" points="256.98 69.78 256.98 76.19 270.81 76.19 270.81 69.78"/><polyline class="cls-6" points="290.5 62.48 290.5 68.88 304.34 68.88 304.34 62.48"/><polyline class="cls-6" points="279.33 69.78 279.33 76.19 293.16 76.19 293.16 69.78"/><polyline class="cls-6" points="312.86 62.48 312.86 68.88 326.69 68.88 326.69 62.48"/><polyline class="cls-6" points="301.68 69.78 301.68 76.19 315.51 76.19 315.51 69.78"/><polyline class="cls-6" points="-0.04 77.67 -0.04 84.08 13.79 84.08 13.79 77.67"/><polyline class="cls-6" points="22.31 77.67 22.31 84.08 36.14 84.08 36.14 77.67"/><polyline class="cls-6" points="11.13 84.97 11.13 91.38 24.96 91.38 24.96 84.97"/><polyline class="cls-6" points="44.66 77.67 44.66 84.08 58.49 84.08 58.49 77.67"/><polyline class="cls-6" points="33.48 84.97 33.48 91.38 47.31 91.38 47.31 84.97"/><polyline class="cls-6" points="67.01 77.67 67.01 84.08 80.84 84.08 80.84 77.67"/><polyline class="cls-6" points="55.83 84.97 55.83 91.38 69.66 91.38 69.66 84.97"/><polyline class="cls-6" points="89.36 77.67 89.36 84.08 103.19 84.08 103.19 77.67"/><polyline class="cls-6" points="78.18 84.97 78.18 91.38 92.01 91.38 92.01 84.97"/><polyline class="cls-6" points="111.71 77.67 111.71 84.08 125.54 84.08 125.54 77.67"/><polyline class="cls-6" points="100.53 84.97 100.53 91.38 114.36 91.38 114.36 84.97"/><polyline class="cls-6" points="134.06 77.67 134.06 84.08 147.89 84.08 147.89 77.67"/><polyline class="cls-6" points="122.88 84.97 122.88 91.38 136.71 91.38 136.71 84.97"/><polyline class="cls-6" points="156.41 77.67 156.41 84.08 170.24 84.08 170.24 77.67"/><polyline class="cls-6" points="145.23 84.97 145.23 91.38 159.06 91.38 159.06 84.97"/><polyline class="cls-6" points="178.76 77.67 178.76 84.08 192.59 84.08 192.59 77.67"/><polyline class="cls-6" points="167.58 84.97 167.58 91.38 181.41 91.38 181.41 84.97"/><polyline class="cls-6" points="201.11 77.67 201.11 84.08 214.94 84.08 214.94 77.67"/><polyline class="cls-6" points="189.93 84.97 189.93 91.38 203.76 91.38 203.76 84.97"/><polyline class="cls-6" points="223.46 77.67 223.46 84.08 237.29 84.08 237.29 77.67"/><polyline class="cls-6" points="212.28 84.97 212.28 91.38 226.11 91.38 226.11 84.97"/><polyline class="cls-6" points="245.81 77.67 245.81 84.08 259.64 84.08 259.64 77.67"/><polyline class="cls-6" points="234.63 84.97 234.63 91.38 248.46 91.38 248.46 84.97"/><polyline class="cls-6" points="268.16 77.67 268.16 84.08 281.99 84.08 281.99 77.67"/><polyline class="cls-6" points="256.98 84.97 256.98 91.38 270.81 91.38 270.81 84.97"/><polyline class="cls-6" points="290.5 77.67 290.5 84.08 304.34 84.08 304.34 77.67"/><polyline class="cls-6" points="279.33 84.97 279.33 91.38 293.16 91.38 293.16 84.97"/><polyline class="cls-6" points="312.86 77.67 312.86 84.08 326.69 84.08 326.69 77.67"/><polyline class="cls-6" points="301.68 84.97 301.68 91.38 315.51 91.38 315.51 84.97"/><polyline class="cls-6" points="-0.04 1.71 -0.04 8.12 13.79 8.12 13.79 1.71"/><polyline class="cls-6" points="22.31 1.71 22.31 8.12 36.14 8.12 36.14 1.71"/><polyline class="cls-6" points="11.13 9.02 11.13 15.42 24.96 15.42 24.96 9.02"/><polyline class="cls-6" points="44.66 1.71 44.66 8.12 58.49 8.12 58.49 1.71"/><polyline class="cls-6" points="33.48 9.02 33.48 15.42 47.31 15.42 47.31 9.02"/><polyline class="cls-6" points="67.01 1.71 67.01 8.12 80.84 8.12 80.84 1.71"/><polyline class="cls-6" points="55.83 9.02 55.83 15.42 69.66 15.42 69.66 9.02"/><polyline class="cls-6" points="89.36 1.71 89.36 8.12 103.19 8.12 103.19 1.71"/><polyline class="cls-6" points="78.18 9.02 78.18 15.42 92.01 15.42 92.01 9.02"/><polyline class="cls-6" points="111.71 1.71 111.71 8.12 125.54 8.12 125.54 1.71"/><polyline class="cls-6" points="100.53 9.02 100.53 15.42 114.36 15.42 114.36 9.02"/><polyline class="cls-6" points="134.06 1.71 134.06 8.12 147.89 8.12 147.89 1.71"/><polyline class="cls-6" points="122.88 9.02 122.88 15.42 136.71 15.42 136.71 9.02"/><polyline class="cls-6" points="156.41 1.71 156.41 8.12 170.24 8.12 170.24 1.71"/><polyline class="cls-6" points="145.23 9.02 145.23 15.42 159.06 15.42 159.06 9.02"/><polyline class="cls-6" points="178.76 1.71 178.76 8.12 192.59 8.12 192.59 1.71"/><polyline class="cls-6" points="167.58 9.02 167.58 15.42 181.41 15.42 181.41 9.02"/><polyline class="cls-6" points="201.11 1.71 201.11 8.12 214.94 8.12 214.94 1.71"/><polyline class="cls-6" points="189.93 9.02 189.93 15.42 203.76 15.42 203.76 9.02"/><polyline class="cls-6" points="223.46 1.71 223.46 8.12 237.29 8.12 237.29 1.71"/><polyline class="cls-6" points="212.28 9.02 212.28 15.42 226.11 15.42 226.11 9.02"/><polyline class="cls-6" points="245.81 1.71 245.81 8.12 259.64 8.12 259.64 1.71"/><polyline class="cls-6" points="234.63 9.02 234.63 15.42 248.46 15.42 248.46 9.02"/><polyline class="cls-6" points="268.16 1.71 268.16 8.12 281.99 8.12 281.99 1.71"/><polyline class="cls-6" points="256.98 9.02 256.98 15.42 270.81 15.42 270.81 9.02"/><polyline class="cls-6" points="290.5 1.71 290.5 8.12 304.34 8.12 304.34 1.71"/><polyline class="cls-6" points="279.33 9.02 279.33 15.42 293.16 15.42 293.16 9.02"/><polyline class="cls-6" points="312.86 1.71 312.86 8.12 326.69 8.12 326.69 1.71"/><polyline class="cls-6" points="301.68 9.02 301.68 15.42 315.51 15.42 315.51 9.02"/><polyline class="cls-6" points="-0.04 16.91 -0.04 23.31 13.79 23.31 13.79 16.91"/><polyline class="cls-6" points="22.31 16.91 22.31 23.31 36.14 23.31 36.14 16.91"/><polyline class="cls-6" points="11.13 24.21 11.13 30.61 24.96 30.61 24.96 24.21"/><polyline class="cls-6" points="44.66 16.91 44.66 23.31 58.49 23.31 58.49 16.91"/><polyline class="cls-6" points="33.48 24.21 33.48 30.61 47.31 30.61 47.31 24.21"/><polyline class="cls-6" points="67.01 16.91 67.01 23.31 80.84 23.31 80.84 16.91"/><polyline class="cls-6" points="55.83 24.21 55.83 30.61 69.66 30.61 69.66 24.21"/><polyline class="cls-6" points="89.36 16.91 89.36 23.31 103.19 23.31 103.19 16.91"/><polyline class="cls-6" points="78.18 24.21 78.18 30.61 92.01 30.61 92.01 24.21"/><polyline class="cls-6" points="111.71 16.91 111.71 23.31 125.54 23.31 125.54 16.91"/><polyline class="cls-6" points="100.53 24.21 100.53 30.61 114.36 30.61 114.36 24.21"/><polyline class="cls-6" points="134.06 16.91 134.06 23.31 147.89 23.31 147.89 16.91"/><polyline class="cls-6" points="122.88 24.21 122.88 30.61 136.71 30.61 136.71 24.21"/><polyline class="cls-6" points="156.41 16.91 156.41 23.31 170.24 23.31 170.24 16.91"/><polyline class="cls-6" points="145.23 24.21 145.23 30.61 159.06 30.61 159.06 24.21"/><polyline class="cls-6" points="178.76 16.91 178.76 23.31 192.59 23.31 192.59 16.91"/><polyline class="cls-6" points="167.58 24.21 167.58 30.61 181.41 30.61 181.41 24.21"/><polyline class="cls-6" points="201.11 16.91 201.11 23.31 214.94 23.31 214.94 16.91"/><polyline class="cls-6" points="189.93 24.21 189.93 30.61 203.76 30.61 203.76 24.21"/><polyline class="cls-6" points="223.46 16.91 223.46 23.31 237.29 23.31 237.29 16.91"/><polyline class="cls-6" points="212.28 24.21 212.28 30.61 226.11 30.61 226.11 24.21"/><polyline class="cls-6" points="245.81 16.91 245.81 23.31 259.64 23.31 259.64 16.91"/><polyline class="cls-6" points="234.63 24.21 234.63 30.61 248.46 30.61 248.46 24.21"/><polyline class="cls-6" points="268.16 16.91 268.16 23.31 281.99 23.31 281.99 16.91"/><polyline class="cls-6" points="256.98 24.21 256.98 30.61 270.81 30.61 270.81 24.21"/><polyline class="cls-6" points="290.5 16.91 290.5 23.31 304.34 23.31 304.34 16.91"/><polyline class="cls-6" points="279.33 24.21 279.33 30.61 293.16 30.61 293.16 24.21"/><polyline class="cls-6" points="312.86 16.91 312.86 23.31 326.69 23.31 326.69 16.91"/><polyline class="cls-6" points="301.68 24.21 301.68 30.61 315.51 30.61 315.51 24.21"/><polyline class="cls-6" points="-0.04 32.1 -0.04 38.5 13.79 38.5 13.79 32.1"/><polyline class="cls-6" points="22.31 32.1 22.31 38.5 36.14 38.5 36.14 32.1"/><polyline class="cls-6" points="11.13 39.4 11.13 45.8 24.96 45.8 24.96 39.4"/><polyline class="cls-6" points="44.66 32.1 44.66 38.5 58.49 38.5 58.49 32.1"/><polyline class="cls-6" points="33.48 39.4 33.48 45.8 47.31 45.8 47.31 39.4"/><polyline class="cls-6" points="67.01 32.1 67.01 38.5 80.84 38.5 80.84 32.1"/><polyline class="cls-6" points="55.83 39.4 55.83 45.8 69.66 45.8 69.66 39.4"/><polyline class="cls-6" points="89.36 32.1 89.36 38.5 103.19 38.5 103.19 32.1"/><polyline class="cls-6" points="78.18 39.4 78.18 45.8 92.01 45.8 92.01 39.4"/><polyline class="cls-6" points="111.71 32.1 111.71 38.5 125.54 38.5 125.54 32.1"/><polyline class="cls-6" points="100.53 39.4 100.53 45.8 114.36 45.8 114.36 39.4"/><polyline class="cls-6" points="134.06 32.1 134.06 38.5 147.89 38.5 147.89 32.1"/><polyline class="cls-6" points="122.88 39.4 122.88 45.8 136.71 45.8 136.71 39.4"/><polyline class="cls-6" points="156.41 32.1 156.41 38.5 170.24 38.5 170.24 32.1"/><polyline class="cls-6" points="145.23 39.4 145.23 45.8 159.06 45.8 159.06 39.4"/><polyline class="cls-6" points="178.76 32.1 178.76 38.5 192.59 38.5 192.59 32.1"/><polyline class="cls-6" points="167.58 39.4 167.58 45.8 181.41 45.8 181.41 39.4"/><polyline class="cls-6" points="201.11 32.1 201.11 38.5 214.94 38.5 214.94 32.1"/><polyline class="cls-6" points="189.93 39.4 189.93 45.8 203.76 45.8 203.76 39.4"/><polyline class="cls-6" points="223.46 32.1 223.46 38.5 237.29 38.5 237.29 32.1"/><polyline class="cls-6" points="212.28 39.4 212.28 45.8 226.11 45.8 226.11 39.4"/><polyline class="cls-6" points="245.81 32.1 245.81 38.5 259.64 38.5 259.64 32.1"/><polyline class="cls-6" points="234.63 39.4 234.63 45.8 248.46 45.8 248.46 39.4"/><polyline class="cls-6" points="268.16 32.1 268.16 38.5 281.99 38.5 281.99 32.1"/><polyline class="cls-6" points="256.98 39.4 256.98 45.8 270.81 45.8 270.81 39.4"/><polyline class="cls-6" points="290.5 32.1 290.5 38.5 304.34 38.5 304.34 32.1"/><polyline class="cls-6" points="279.33 39.4 279.33 45.8 293.16 45.8 293.16 39.4"/><polyline class="cls-6" points="312.86 32.1 312.86 38.5 326.69 38.5 326.69 32.1"/><polyline class="cls-6" points="301.68 39.4 301.68 45.8 315.51 45.8 315.51 39.4"/></g><path class="cls-7" d="M1.5,31V42.74A3.06,3.06,0,0,0,4.56,45.8H6.32V78.49A10.83,10.83,0,0,0,17.15,89.32H309.5a10.83,10.83,0,0,0,10.83-10.83V45.8h1.76a3.06,3.06,0,0,0,3.06-3.06V31Z"/><line class="cls-8" x1="15.3" y1="45.8" x2="311.35" y2="45.8"/></svg>