<svg id="레이어_1" data-name="레이어 1" xmlns="http://www.w3.org/2000/svg" xmlns:xlink="http://www.w3.org/1999/xlink" viewBox="0 0 522.68 210.42"><defs><style>.cls-1{fill:none;}.cls-2{clip-path:url(#clip-path);}.cls-3{fill:#c18563;stroke:#a46c4a;stroke-miterlimit:10;stroke-width:3px;}.cls-4{fill:#7f918e;}.cls-5{fill:#040000;}.cls-6{fill:#6c8784;}.cls-7{fill:#526a67;}.cls-8{fill:#d8d499;}</style><clipPath id="clip-path"><path class="cls-1" d="M-1275.73-498.5H123.1a14.17,14.17,0,0,1,14.17,14.17V487.32A14.17,14.17,0,0,1,123.1,501.5H-1275.73a14.18,14.18,0,0,1-14.18-14.18V-484.33A14.17,14.17,0,0,1-1275.73-498.5Z" transform="translate(-574.81 577.81) rotate(90)"/></clipPath></defs><g class="cls-2"><rect class="cls-3" x="-179.37" y="16.96" width="299.65" height="69.91"/><rect class="cls-3" x="-179.37" y="156.78" width="299.65" height="69.91"/></g><polygon class="cls-4" points="521.18 33.15 1.5 33.15 17.44 1.5 505.24 1.5 521.18 33.15"/><path class="cls-5" d="M523.61,34.65H-.93L16.52,0H506.16Zm-519.68-3H518.74L504.31,3H18.36Z"/><rect class="cls-6" x="1.5" y="33.15" width="519.68" height="19.97"/><path class="cls-5" d="M522.68,54.62H0v-23H522.68ZM3,51.62H519.68v-17H3Z"/><rect class="cls-6" x="11.29" y="188.95" width="31.29" height="19.97"/><path class="cls-5" d="M44.07,210.42H9.79v-23H44.07Zm-31.28-3H41.07v-17H12.79Z"/><rect class="cls-7" x="12.8" y="190.45" width="28.25" height="7.01"/><rect class="cls-6" x="480.1" y="188.95" width="31.29" height="19.97" transform="translate(991.49 397.86) rotate(-180)"/><path class="cls-5" d="M512.89,210.42H478.6v-23h34.29Zm-31.29-3h28.29v-17H481.6Z"/><rect class="cls-6" x="1.5" y="145.49" width="259.84" height="43.46"/><path class="cls-5" d="M262.84,190.45H0V144H262.84ZM3,187.45H259.84V147H3Z"/><rect class="cls-6" x="118.72" y="46.33" width="25.4" height="241.78" transform="translate(298.64 35.8) rotate(90)"/><path class="cls-5" d="M253.81,181.42H9V153H253.81ZM12,178.42H250.81V156H12Z"/><rect class="cls-6" x="261.34" y="145.49" width="259.84" height="43.46"/><path class="cls-5" d="M522.68,190.45H259.84V144H522.68Zm-259.84-3H519.68V147H262.84Z"/><rect class="cls-6" x="378.56" y="46.33" width="25.4" height="241.78" transform="translate(558.47 -224.04) rotate(90)"/><path class="cls-5" d="M513.65,181.42H268.87V153H513.65Zm-241.78-3H510.65V156H271.87Z"/><rect class="cls-6" x="1.5" y="53.12" width="259.84" height="92.36"/><path class="cls-5" d="M262.84,147H0V51.62H262.84ZM3,144H259.84V54.62H3Z"/><rect class="cls-6" x="94.27" y="-21.58" width="74.31" height="241.78" transform="translate(230.73 -32.11) rotate(90)"/><path class="cls-5" d="M253.81,138H9V60.65H253.81ZM12,135H250.81V63.65H12Z"/><rect class="cls-6" x="261.34" y="53.12" width="259.84" height="92.36"/><path class="cls-5" d="M522.68,147H259.84V51.62H522.68Zm-259.84-3H519.68V54.62H262.84Z"/><rect class="cls-6" x="354.1" y="-21.58" width="74.31" height="241.78" transform="translate(490.56 -291.95) rotate(90)"/><path class="cls-5" d="M513.65,138H268.87V60.65H513.65Zm-241.78-3H510.65V63.65H271.87Z"/><path class="cls-8" d="M25,62.15H11.29V75.83A6.68,6.68,0,0,0,18,69.15h.33A6.68,6.68,0,0,0,25,62.47C25,62.37,25,62.26,25,62.15Z"/><path class="cls-5" d="M11.29,77.33H9.79V60.65H26.37l.08,1.5c0,.11,0,.22,0,.32a8.19,8.19,0,0,1-7.12,8.12A8.18,8.18,0,0,1,11.29,77.33Zm1.5-13.68V74.11a5.19,5.19,0,0,0,3.67-4.9V67.57l1.83.08a5.19,5.19,0,0,0,5-4Z"/><path class="cls-8" d="M11.29,122.08v13.66H25a6.68,6.68,0,0,0-6.67-6.68h0c0-.11,0-.21,0-.32a6.68,6.68,0,0,0-6.68-6.68Z"/><path class="cls-5" d="M26.46,137.24H9.79v-16.6l1.51-.07h.31a8.19,8.19,0,0,1,8.11,7.12,8.19,8.19,0,0,1,6.74,8.06Zm-13.67-3H23.24a5.18,5.18,0,0,0-4.89-3.68H16.7l.08-1.72a5.22,5.22,0,0,0-4-5.15Z"/><path class="cls-8" d="M238.65,62.15h13.66V75.83a6.68,6.68,0,0,1-6.68-6.68h-.32a6.68,6.68,0,0,1-6.68-6.68C238.63,62.37,238.64,62.26,238.65,62.15Z"/><path class="cls-5" d="M253.81,77.33h-1.5a8.18,8.18,0,0,1-8.05-6.74,8.19,8.19,0,0,1-7.13-8.12c0-.1,0-.2,0-.3l.07-1.43,1.44-.09h15.16Zm-6.68-8.12a5.19,5.19,0,0,0,3.68,4.9V63.65H240.28a5.18,5.18,0,0,0,5,4l1.82-.08Z"/><path class="cls-8" d="M252.31,122.08v13.66H238.63a6.68,6.68,0,0,1,6.68-6.68h0c0-.11,0-.21,0-.32a6.68,6.68,0,0,1,6.68-6.68Z"/><path class="cls-5" d="M253.81,137.24H237.13v-1.5a8.2,8.2,0,0,1,6.75-8.06,8.19,8.19,0,0,1,8.11-7.12h.3l1.44.07.08,1.44Zm-13.46-3h10.46V123.71a5.18,5.18,0,0,0-4,5l.08,1.82h-1.64A5.18,5.18,0,0,0,240.35,134.24Z"/><path class="cls-8" d="M25,155.86H11.29v13.68A6.68,6.68,0,0,0,18,162.86h.33A6.68,6.68,0,0,0,25,156.18C25,156.08,25,156,25,155.86Z"/><path class="cls-5" d="M11.29,171H9.79V154.36H26.37l.08,1.42-1.5.08h1.5c0,.11,0,.21,0,.32a8.19,8.19,0,0,1-7.12,8.12A8.19,8.19,0,0,1,11.29,171Zm1.5-13.68v10.46a5.19,5.19,0,0,0,3.67-4.9v-1.64l1.83.08a5.19,5.19,0,0,0,5-4Z"/><path class="cls-8" d="M238.65,155.86h13.66v13.68a6.68,6.68,0,0,1-6.68-6.68h-.32a6.68,6.68,0,0,1-6.68-6.68C238.63,156.08,238.64,156,238.65,155.86Z"/><path class="cls-5" d="M253.81,171h-1.5a8.19,8.19,0,0,1-8.05-6.74,8.19,8.19,0,0,1-7.13-8.12c0-.1,0-.2,0-.3l.07-1.44,1.44-.08h15.16Zm-6.68-8.12a5.19,5.19,0,0,0,3.68,4.9V157.36H240.28a5.18,5.18,0,0,0,5,4l1.82-.08Z"/><path class="cls-8" d="M284.41,62.15H270.75V75.83a6.68,6.68,0,0,0,6.67-6.68h.33a6.68,6.68,0,0,0,6.67-6.68C284.42,62.37,284.41,62.26,284.41,62.15Z"/><path class="cls-5" d="M270.75,77.33h-1.5V60.65h16.59l.07,1.52c0,.1,0,.2,0,.3a8.19,8.19,0,0,1-7.12,8.12A8.18,8.18,0,0,1,270.75,77.33Zm1.5-13.68V74.11a5.19,5.19,0,0,0,3.67-4.9V67.57l1.83.08a5.19,5.19,0,0,0,5-4Z"/><path class="cls-8" d="M270.75,122.08v13.66h13.67a6.68,6.68,0,0,0-6.67-6.68h0c0-.11,0-.21,0-.32a6.68,6.68,0,0,0-6.68-6.68Z"/><path class="cls-5" d="M285.92,137.24H269.25v-16.6l1.51-.07h.31a8.19,8.19,0,0,1,8.11,7.12,8.19,8.19,0,0,1,6.74,8.06Zm-13.67-3H282.7a5.18,5.18,0,0,0-4.89-3.68h-1.65l.08-1.72a5.22,5.22,0,0,0-4-5.15Z"/><path class="cls-8" d="M498.11,62.15h13.66V75.83a6.68,6.68,0,0,1-6.68-6.68h-.32a6.68,6.68,0,0,1-6.68-6.68C498.09,62.37,498.1,62.26,498.11,62.15Z"/><path class="cls-5" d="M513.27,77.33h-1.5a8.18,8.18,0,0,1-8-6.74,8.19,8.19,0,0,1-7.13-8.12c0-.1,0-.2,0-.3l.07-1.43,1.44-.09h15.16Zm-6.68-8.12a5.19,5.19,0,0,0,3.68,4.9V63.65H499.74a5.18,5.18,0,0,0,5,4l1.82-.08Z"/><path class="cls-8" d="M511.77,122.08v13.66H498.09a6.68,6.68,0,0,1,6.68-6.68h0c0-.11,0-.21,0-.32a6.68,6.68,0,0,1,6.68-6.68Z"/><path class="cls-5" d="M513.27,137.24H496.59v-1.5a8.2,8.2,0,0,1,6.75-8.06,8.18,8.18,0,0,1,8.11-7.12h.31l1.43.07.08,1.44Zm-13.46-3h10.46V123.71a5.18,5.18,0,0,0-4,5l.08,1.82h-1.64A5.18,5.18,0,0,0,499.81,134.24Z"/><path class="cls-8" d="M284.41,155.86H270.75v13.68a6.68,6.68,0,0,0,6.67-6.68h.33a6.68,6.68,0,0,0,6.67-6.68C284.42,156.08,284.41,156,284.41,155.86Z"/><path class="cls-5" d="M270.75,171h-1.5V154.36h16.59l.07,1.52c0,.1,0,.2,0,.3a8.19,8.19,0,0,1-7.12,8.12A8.19,8.19,0,0,1,270.75,171Zm1.5-13.68v10.46a5.19,5.19,0,0,0,3.67-4.9v-1.64l1.73.08h0a5.22,5.22,0,0,0,5.13-4Z"/><path class="cls-8" d="M498.11,155.86h13.66v13.68a6.68,6.68,0,0,1-6.68-6.68h-.32a6.68,6.68,0,0,1-6.68-6.68C498.09,156.08,498.1,156,498.11,155.86Z"/><path class="cls-5" d="M513.27,171h-1.5a8.19,8.19,0,0,1-8-6.74,8.19,8.19,0,0,1-7.13-8.12c0-.1,0-.2,0-.3l.07-1.44,1.44-.08h15.16Zm-6.68-8.12a5.19,5.19,0,0,0,3.68,4.9V157.36H499.74a5.18,5.18,0,0,0,5,4l1.82-.08Z"/><rect class="cls-7" x="481.62" y="190.42" width="28.25" height="7.04"/></svg>