<svg id="레이어_1" data-name="레이어 1" xmlns="http://www.w3.org/2000/svg" xmlns:xlink="http://www.w3.org/1999/xlink" viewBox="0 0 1000 1427.18"><defs><style>.cls-1{fill:none;}.cls-2{clip-path:url(#clip-path);}.cls-3{fill:#ece2d7;}.cls-4{fill:#cfb69d;}.cls-5{clip-path:url(#clip-path-2);}.cls-6{fill:#c18563;}.cls-6,.cls-7{stroke:#a46c4a;stroke-miterlimit:10;stroke-width:3px;}.cls-7{fill:#c58968;}</style><clipPath id="clip-path"><path class="cls-1" d="M-199.41,213.59H1199.41a14.18,14.18,0,0,1,14.18,14.18v971.65a14.17,14.17,0,0,1-14.17,14.17H-199.41a14.18,14.18,0,0,1-14.18-14.18V227.76A14.17,14.17,0,0,1-199.41,213.59Z" transform="translate(1213.59 213.59) rotate(90)"/></clipPath><clipPath id="clip-path-2"><path class="cls-1" d="M-199.41,213.59H1199.41a14.17,14.17,0,0,1,14.17,14.17v971.65a14.17,14.17,0,0,1-14.17,14.17H-199.41a14.18,14.18,0,0,1-14.18-14.18V227.76A14.17,14.17,0,0,1-199.41,213.59Z" transform="translate(1213.59 213.59) rotate(90)"/></clipPath></defs><g class="cls-2"><rect class="cls-3" y="-138.14" width="22.72" height="1605.32"/><rect class="cls-4" x="22.72" y="-138.14" width="22.72" height="1605.32"/><rect class="cls-3" x="45.44" y="-138.14" width="22.72" height="1605.32"/><rect class="cls-4" x="68.16" y="-138.14" width="22.72" height="1605.32"/><rect class="cls-3" x="90.88" y="-138.14" width="22.72" height="1605.32"/><rect class="cls-4" x="113.6" y="-138.14" width="22.72" height="1605.32"/><rect class="cls-3" x="136.32" y="-138.14" width="22.72" height="1605.32"/><rect class="cls-4" x="159.05" y="-138.14" width="22.72" height="1605.32"/><rect class="cls-3" x="181.77" y="-138.14" width="22.72" height="1605.32"/><rect class="cls-4" x="204.49" y="-138.14" width="22.72" height="1605.32"/><rect class="cls-3" x="227.21" y="-138.14" width="22.72" height="1605.32"/><rect class="cls-4" x="249.93" y="-138.14" width="22.72" height="1605.32"/><rect class="cls-3" x="272.65" y="-138.14" width="22.72" height="1605.32"/><rect class="cls-4" x="295.37" y="-138.14" width="22.72" height="1605.32"/><rect class="cls-3" x="318.09" y="-138.14" width="22.72" height="1605.32"/><rect class="cls-4" x="340.81" y="-138.14" width="22.72" height="1605.32"/><rect class="cls-3" x="363.53" y="-138.14" width="22.72" height="1605.32"/><rect class="cls-4" x="386.25" y="-138.14" width="22.72" height="1605.32"/><rect class="cls-3" x="408.97" y="-138.14" width="22.72" height="1605.32"/><rect class="cls-4" x="431.69" y="-138.14" width="22.72" height="1605.32"/><rect class="cls-3" x="454.42" y="-138.14" width="22.72" height="1605.32"/><rect class="cls-4" x="477.14" y="-138.14" width="22.72" height="1605.32"/><rect class="cls-3" x="500.14" y="-138.14" width="22.72" height="1605.32"/><rect class="cls-4" x="522.86" y="-138.14" width="22.72" height="1605.32"/><rect class="cls-3" x="545.58" y="-138.14" width="22.72" height="1605.32"/><rect class="cls-4" x="568.3" y="-138.14" width="22.72" height="1605.32"/><rect class="cls-3" x="591.03" y="-138.14" width="22.72" height="1605.32"/><rect class="cls-4" x="613.75" y="-138.14" width="22.72" height="1605.32"/><rect class="cls-3" x="636.47" y="-138.14" width="22.72" height="1605.32"/><rect class="cls-4" x="659.19" y="-138.14" width="22.72" height="1605.32"/><rect class="cls-3" x="681.91" y="-138.14" width="22.72" height="1605.32"/><rect class="cls-4" x="704.63" y="-138.14" width="22.72" height="1605.32"/><rect class="cls-3" x="727.35" y="-138.14" width="22.72" height="1605.32"/><rect class="cls-4" x="750.07" y="-138.14" width="22.72" height="1605.32"/><rect class="cls-3" x="772.79" y="-138.14" width="22.72" height="1605.32"/><rect class="cls-4" x="795.51" y="-138.14" width="22.72" height="1605.32"/><rect class="cls-3" x="818.23" y="-138.14" width="22.72" height="1605.32"/><rect class="cls-4" x="840.95" y="-138.14" width="22.72" height="1605.32"/><rect class="cls-3" x="863.68" y="-138.14" width="22.72" height="1605.32"/><rect class="cls-4" x="886.4" y="-138.14" width="22.72" height="1605.32"/><rect class="cls-3" x="909.12" y="-138.14" width="22.72" height="1605.32"/><rect class="cls-4" x="931.84" y="-138.14" width="22.72" height="1605.32"/><rect class="cls-3" x="954.56" y="-138.14" width="22.72" height="1605.32"/><rect class="cls-4" x="977.28" y="-138.14" width="22.72" height="1605.32"/></g><g class="cls-5"><rect class="cls-6" x="-2" y="729.05" width="299.65" height="69.91"/><rect class="cls-7" x="297.65" y="729.05" width="299.65" height="69.91"/><rect class="cls-6" x="597.3" y="729.05" width="299.65" height="69.91"/><rect class="cls-6" x="896.95" y="729.05" width="299.65" height="69.91"/><rect class="cls-6" x="-126.09" y="798.96" width="299.65" height="69.91"/><rect class="cls-6" x="173.56" y="798.96" width="299.65" height="69.91"/><rect class="cls-6" x="473.21" y="798.96" width="299.65" height="69.91"/><rect class="cls-7" x="772.86" y="798.96" width="299.65" height="69.91"/><rect class="cls-7" x="-2" y="868.87" width="299.65" height="69.91"/><rect class="cls-6" x="297.65" y="868.87" width="299.65" height="69.91"/><rect class="cls-6" x="597.3" y="868.87" width="299.65" height="69.91"/><rect class="cls-6" x="896.95" y="868.87" width="299.65" height="69.91"/><rect class="cls-6" x="-126.09" y="938.79" width="299.65" height="69.91"/><rect class="cls-6" x="173.56" y="938.79" width="299.65" height="69.91"/><rect class="cls-7" x="473.21" y="938.79" width="299.65" height="69.91"/><rect class="cls-6" x="772.86" y="938.79" width="299.65" height="69.91"/><rect class="cls-7" x="-2" y="1008.7" width="299.65" height="69.91"/><rect class="cls-6" x="297.65" y="1008.7" width="299.65" height="69.91"/><rect class="cls-6" x="597.3" y="1008.7" width="299.65" height="69.91"/><rect class="cls-6" x="896.95" y="1008.7" width="299.65" height="69.91"/><rect class="cls-6" x="-126.09" y="1078.61" width="299.65" height="69.91"/><rect class="cls-6" x="173.56" y="1078.61" width="299.65" height="69.91"/><rect class="cls-6" x="473.21" y="1078.61" width="299.65" height="69.91"/><rect class="cls-7" x="772.86" y="1078.61" width="299.65" height="69.91"/><rect class="cls-6" x="-2" y="1148.53" width="299.65" height="69.91"/><rect class="cls-7" x="297.65" y="1148.53" width="299.65" height="69.91"/><rect class="cls-6" x="597.3" y="1148.53" width="299.65" height="69.91"/><rect class="cls-6" x="896.95" y="1148.53" width="299.65" height="69.91"/><rect class="cls-6" x="-126.09" y="1218.44" width="299.65" height="69.91"/><rect class="cls-6" x="173.56" y="1218.44" width="299.65" height="69.91"/><rect class="cls-7" x="473.21" y="1218.44" width="299.65" height="69.91"/><rect class="cls-6" x="772.86" y="1218.44" width="299.65" height="69.91"/><rect class="cls-7" x="-2" y="1288.35" width="299.65" height="69.91"/><rect class="cls-6" x="297.65" y="1288.35" width="299.65" height="69.91"/><rect class="cls-6" x="597.3" y="1288.35" width="299.65" height="69.91"/><rect class="cls-6" x="896.95" y="1288.35" width="299.65" height="69.91"/><rect class="cls-6" x="-126.09" y="1358.27" width="299.65" height="69.91"/><rect class="cls-6" x="173.56" y="1358.27" width="299.65" height="69.91"/><rect class="cls-6" x="473.21" y="1358.27" width="299.65" height="69.91"/><rect class="cls-7" x="772.86" y="1358.27" width="299.65" height="69.91"/></g></svg>