<svg id="레이어_1" data-name="레이어 1" xmlns="http://www.w3.org/2000/svg" xmlns:xlink="http://www.w3.org/1999/xlink" viewBox="0 0 485 348.38"><defs><style>.cls-1{fill:none;}.cls-2{fill:#0b0b0a;}.cls-3{fill:#595857;}.cls-4{fill:#92d2e2;}.cls-5{fill:#22211e;}.cls-6{opacity:0.5;}.cls-7{clip-path:url(#clip-path);}.cls-8{fill:url(#무제_그라디언트_5);}.cls-9{clip-path:url(#clip-path-2);}</style><clipPath id="clip-path"><rect class="cls-1" x="-23.66" y="69.69" width="302.38" height="209" transform="translate(301.72 46.66) rotate(90)"/></clipPath><linearGradient id="무제_그라디언트_5" x1="369.43" y1="-16.71" x2="145.2" y2="410.74" gradientUnits="userSpaceOnUse"><stop offset="0" stop-color="#fff"/><stop offset="1" stop-color="#fff" stop-opacity="0"/></linearGradient><clipPath id="clip-path-2"><rect class="cls-1" x="206.31" y="69.69" width="302.38" height="209" transform="translate(531.69 -183.31) rotate(90)"/></clipPath></defs><rect class="cls-2" width="485" height="348.38"/><rect class="cls-3" x="73.31" y="-63.31" width="338.38" height="475" transform="translate(416.69 -68.31) rotate(90)"/><rect class="cls-2" x="-26.69" y="66.69" width="308.38" height="215" transform="translate(301.69 46.69) rotate(90)"/><rect class="cls-4" x="-23.69" y="69.69" width="302.38" height="209" transform="translate(301.69 46.69) rotate(90)"/><rect class="cls-2" x="203.31" y="66.69" width="308.38" height="215" transform="translate(531.69 -183.31) rotate(90)"/><polygon class="cls-5" points="27.63 320.7 27.63 22.94 22.95 22.94 22.95 325.38 23 325.38 27.63 325.38 232.11 325.38 232.11 320.7 27.63 320.7"/><rect class="cls-4" x="206.28" y="69.69" width="302.38" height="209" transform="translate(531.65 -183.28) rotate(90)"/><g class="cls-6"><g class="cls-7"><polygon class="cls-8" points="338.83 346.4 113.87 346.4 198.16 5 423.12 5 338.83 346.4"/></g></g><polygon class="cls-5" points="257.59 320.7 257.59 22.94 252.92 22.94 252.92 325.38 252.97 325.38 257.59 325.38 462.07 325.38 462.07 320.7 257.59 320.7"/><g class="cls-6"><g class="cls-9"><polygon class="cls-8" points="338.83 346.4 113.87 346.4 198.16 5 423.12 5 338.83 346.4"/></g></g></svg>