<svg id="레이어_1" data-name="레이어 1" xmlns="http://www.w3.org/2000/svg" xmlns:xlink="http://www.w3.org/1999/xlink" viewBox="0 0 144.84 128.02"><defs><style>.cls-1{fill:none;}.cls-2{clip-path:url(#clip-path);}.cls-3{fill:#c18563;stroke:#a46c4a;}.cls-3,.cls-4,.cls-5,.cls-7,.cls-8,.cls-9{stroke-miterlimit:10;stroke-width:3px;}.cls-4{fill:#e42216;}.cls-4,.cls-5,.cls-7,.cls-8,.cls-9{stroke:#040000;}.cls-5{fill:#ddd;}.cls-6{font-size:48.11px;fill:#040000;font-family:BMEULJIRO-KSCpc-EUC-H, BM EULJIRO;}.cls-7{fill:#f5f4b0;}.cls-8{fill:#567ec0;}.cls-9{fill:#dd243d;}</style><clipPath id="clip-path"><path class="cls-1" d="M-58-1677.14H1340.83A14.18,14.18,0,0,1,1355-1663v971.65a14.18,14.18,0,0,1-14.18,14.18H-58a14.18,14.18,0,0,1-14.18-14.18V-1663A14.17,14.17,0,0,1-58-1677.14Z" transform="translate(-535.72 -1818.56) rotate(90)"/></clipPath></defs><g class="cls-2"><rect class="cls-3" x="15.33" y="-14.16" width="299.65" height="69.91"/></g><polygon class="cls-4" points="110.39 28.6 34.44 28.6 1.8 77.56 34.44 126.51 110.39 126.51 143.04 77.56 110.39 28.6"/><rect class="cls-5" x="34.44" y="1.51" width="75.95" height="125"/><text class="cls-6" transform="translate(51.41 94.4)">복</text><rect class="cls-7" x="34.44" y="1.51" width="15.19" height="39.43"/><rect class="cls-8" x="49.63" y="1.51" width="15.19" height="39.43"/><rect class="cls-9" x="64.82" y="1.51" width="15.19" height="39.43"/><rect class="cls-8" x="80.01" y="1.51" width="15.19" height="39.43"/><rect class="cls-7" x="95.2" y="1.51" width="15.19" height="39.43"/><rect class="cls-7" x="34.44" y="117.38" width="15.19" height="9.13"/><rect class="cls-8" x="49.63" y="117.38" width="15.19" height="9.13"/><rect class="cls-9" x="64.82" y="117.38" width="15.19" height="9.13"/><rect class="cls-8" x="80.01" y="117.38" width="15.19" height="9.13"/><rect class="cls-7" x="95.2" y="117.38" width="15.19" height="9.13"/></svg>