<svg id="레이어_1" data-name="레이어 1" xmlns="http://www.w3.org/2000/svg" xmlns:xlink="http://www.w3.org/1999/xlink" viewBox="0 0 144.84 128.02"><defs><style>.cls-1,.cls-5{fill:none;}.cls-2,.cls-4{fill:#e94a64;}.cls-10,.cls-11,.cls-2,.cls-5,.cls-6,.cls-7,.cls-8{stroke:#040000;stroke-miterlimit:10;stroke-width:3px;}.cls-3{fill:#c62c4e;}.cls-6{fill:#f0d68d;}.cls-7{fill:#4392ce;}.cls-8{fill:#e3242e;}.cls-9{clip-path:url(#clip-path);}.cls-10{fill:#f3c18f;}.cls-11{fill:#d6d6d6;}.cls-12{font-size:38.88px;fill:#040000;font-family:BMEULJIRO-KSCpc-EUC-H, BM EULJIRO;}</style><clipPath id="clip-path"><rect class="cls-1" x="34.44" y="1.52" width="75.95" height="125"/></clipPath></defs><polygon class="cls-2" points="110.39 28.61 34.44 28.61 1.8 77.57 34.44 126.52 110.39 126.52 143.04 77.57 110.39 28.61"/><ellipse class="cls-3" cx="20.9" cy="73.46" rx="1.4" ry="4.33"/><ellipse class="cls-3" cx="16.79" cy="76.45" rx="1.4" ry="4.33" transform="translate(-61.11 68.79) rotate(-72)"/><ellipse class="cls-3" cx="18.36" cy="81.29" rx="4.33" ry="1.4" transform="translate(-58.19 48.36) rotate(-54)"/><ellipse class="cls-3" cx="23.45" cy="81.29" rx="1.4" ry="4.33" transform="translate(-43.3 29.31) rotate(-36)"/><ellipse class="cls-3" cx="25.02" cy="76.45" rx="4.33" ry="1.4" transform="translate(-22.4 11.47) rotate(-18)"/><ellipse class="cls-3" cx="33.28" cy="97.76" rx="1.4" ry="4.33"/><ellipse class="cls-3" cx="29.16" cy="100.75" rx="1.4" ry="4.33" transform="translate(-75.67 97.35) rotate(-72)"/><ellipse class="cls-3" cx="30.73" cy="105.59" rx="4.33" ry="1.4" transform="translate(-72.75 68.39) rotate(-54)"/><ellipse class="cls-3" cx="35.82" cy="105.59" rx="1.4" ry="4.33" transform="translate(-55.22 41.22) rotate(-36)"/><ellipse class="cls-3" cx="37.39" cy="100.75" rx="4.33" ry="1.4" transform="translate(-29.3 16.49) rotate(-18)"/><ellipse class="cls-3" cx="33.28" cy="50.71" rx="1.4" ry="4.33"/><ellipse class="cls-3" cx="29.16" cy="53.7" rx="1.4" ry="4.33" transform="translate(-30.93 64.84) rotate(-72)"/><ellipse class="cls-3" cx="30.73" cy="58.54" rx="4.33" ry="1.4" transform="translate(-34.69 49) rotate(-54)"/><ellipse class="cls-3" cx="35.82" cy="58.54" rx="1.4" ry="4.33" transform="translate(-27.57 32.24) rotate(-36)"/><ellipse class="cls-3" cx="37.39" cy="53.7" rx="4.33" ry="1.4" transform="translate(-14.77 14.18) rotate(-18)"/><ellipse class="cls-3" cx="123.94" cy="73.46" rx="1.4" ry="4.33"/><ellipse class="cls-3" cx="128.05" cy="76.45" rx="4.33" ry="1.4" transform="translate(-17.36 43.31) rotate(-18)"/><ellipse class="cls-3" cx="126.48" cy="81.29" rx="1.4" ry="4.33" transform="translate(-23.62 89.87) rotate(-36)"/><ellipse class="cls-3" cx="121.39" cy="81.29" rx="4.33" ry="1.4" transform="translate(-15.72 131.71) rotate(-54)"/><ellipse class="cls-3" cx="119.82" cy="76.45" rx="1.4" ry="4.33" transform="translate(10.09 166.78) rotate(-72)"/><ellipse class="cls-3" cx="111.56" cy="97.76" rx="1.4" ry="4.33"/><ellipse class="cls-3" cx="115.68" cy="100.75" rx="4.33" ry="1.4" transform="translate(-25.47 40.68) rotate(-18)"/><ellipse class="cls-3" cx="114.11" cy="105.59" rx="1.4" ry="4.33" transform="matrix(0.81, -0.59, 0.59, 0.81, -40.27, 87.24)"/><ellipse class="cls-3" cx="109.02" cy="105.59" rx="4.33" ry="1.4" transform="translate(-40.48 131.72) rotate(-54)"/><ellipse class="cls-3" cx="107.45" cy="100.75" rx="1.4" ry="4.33" transform="translate(-21.57 171.8) rotate(-72)"/><ellipse class="cls-3" cx="111.56" cy="50.71" rx="1.4" ry="4.33"/><ellipse class="cls-3" cx="115.68" cy="53.7" rx="4.33" ry="1.4" transform="translate(-10.93 38.38) rotate(-18)"/><ellipse class="cls-3" cx="114.11" cy="58.54" rx="1.4" ry="4.33" transform="translate(-12.62 78.25) rotate(-36)"/><ellipse class="cls-3" cx="109.02" cy="58.54" rx="4.33" ry="1.4" transform="translate(-2.42 112.33) rotate(-54)"/><ellipse class="cls-3" cx="107.45" cy="53.7" rx="1.4" ry="4.33" transform="translate(23.17 139.3) rotate(-72)"/><rect class="cls-4" x="34.44" y="1.52" width="75.95" height="125"/><rect class="cls-5" x="34.44" y="1.52" width="75.95" height="125"/><rect class="cls-6" x="34.53" y="1.52" width="15.17" height="77.55"/><rect class="cls-7" x="49.7" y="1.52" width="15.17" height="77.55"/><rect class="cls-8" x="64.87" y="1.52" width="15.17" height="77.55"/><rect class="cls-7" x="80.05" y="1.52" width="15.17" height="77.55"/><rect class="cls-6" x="95.22" y="1.52" width="15.17" height="77.55"/><g class="cls-9"><rect class="cls-10" x="43.78" y="50.53" width="57.27" height="57.27" transform="translate(179.6 83.94) rotate(135)"/><rect class="cls-11" x="49.44" y="56.2" width="45.94" height="45.94" transform="translate(77.19 -28.02) rotate(45)"/><text class="cls-12" transform="translate(55.47 90.6)">복</text></g></svg>