<svg id="레이어_1" data-name="레이어 1" xmlns="http://www.w3.org/2000/svg" xmlns:xlink="http://www.w3.org/1999/xlink" viewBox="0 0 144.84 128.02"><defs><style>.cls-1{fill:none;}.cls-2{fill:#1eb3cf;}.cls-3,.cls-7{fill:#040000;}.cls-4{fill:#f3abb3;}.cls-5{fill:#efefef;}.cls-6{fill:#e94a64;}.cls-7{font-size:48.11px;font-family:BMEULJIRO-KSCpc-EUC-H, BM EULJIRO;}.cls-8{clip-path:url(#clip-path);}.cls-9{fill:#2f7cc1;}.cls-10{fill:#5f5f5f;}.cls-11{fill:#231815;}</style><clipPath id="clip-path"><polygon class="cls-1" points="110.44 28.61 34.48 28.61 1.84 77.57 34.48 126.52 110.44 126.52 143.08 77.57 110.44 28.61"/></clipPath></defs><polygon class="cls-2" points="110.39 28.61 34.44 28.61 1.8 77.57 34.44 126.52 110.39 126.52 143.04 77.57 110.39 28.61"/><path class="cls-3" d="M111.2,128H33.64L0,77.57,33.64,27.11H111.2l33.64,50.46Zm-75.95-3h74.34l31.64-47.45L109.59,30.11H35.25L3.61,77.57Z"/><rect class="cls-4" x="34.44" y="1.52" width="75.95" height="125"/><path class="cls-3" d="M111.89,128H32.94V0h79Zm-75.95-3h73V3H35.94Z"/><path class="cls-3" d="M111.89,128H32.94V0h79Zm-75.95-3h73V3H35.94Z"/><rect class="cls-5" x="46.15" y="1.52" width="52.62" height="109.84"/><path class="cls-3" d="M100.27,112.86H44.65V0h55.62Zm-52.62-3H97.27V3H47.65Z"/><rect class="cls-6" x="34.44" y="42.57" width="75.95" height="4.68"/><path class="cls-3" d="M111.89,48.74H32.94V41.07h79Zm-75.95-3h73V44.07H35.94Z"/><text class="cls-7" transform="translate(51.45 94.41)">복</text><g class="cls-8"><polygon class="cls-2" points="1.84 77.57 34.48 126.52 34.48 28.61 1.84 77.57"/><path class="cls-3" d="M36,131.48,0,77.57,36,23.66ZM3.65,77.57l29.34,44v-88Z"/><polygon class="cls-9" points="34.48 38.78 34.48 116.36 8.62 77.57 34.48 38.78"/><path class="cls-3" d="M36,121.31,6.82,77.57,36,33.82ZM10.43,77.57,33,111.4V43.73Z"/><polygon class="cls-10" points="34.48 48.95 34.48 106.19 15.4 77.57 34.48 48.95"/><path class="cls-11" d="M35.49,109.49,14.2,77.57,35.49,45.64ZM16.6,77.57l16.89,25.31V52.25Z"/><polygon class="cls-2" points="34.48 59.11 34.48 96.02 22.18 77.57 34.48 59.11"/><path class="cls-3" d="M36,101,20.38,77.57,36,54.16ZM24,77.57l9,13.49v-27Z"/><polygon class="cls-2" points="143.24 77.57 110.6 28.61 110.6 126.52 143.24 77.57"/><path class="cls-3" d="M109.1,131.48V23.66L145,77.57Zm3-97.92v88l29.34-44Z"/><polygon class="cls-9" points="110.6 116.36 110.6 38.78 136.46 77.57 110.6 116.36"/><path class="cls-3" d="M109.1,121.31V33.82l29.16,43.75Zm3-77.58V111.4l22.56-33.83Z"/><polygon class="cls-10" points="110.6 106.19 110.6 48.95 129.68 77.57 110.6 106.19"/><path class="cls-11" d="M109.6,109.49V45.64l21.28,31.93Zm2-57.24v50.63l16.88-25.31Z"/><polygon class="cls-2" points="110.6 96.02 110.6 59.11 122.9 77.57 110.6 96.02"/><path class="cls-3" d="M109.1,101V54.16l15.61,23.41Zm3-36.9v27l9-13.5Z"/></g></svg>