<svg id="레이어_1" data-name="레이어 1" xmlns="http://www.w3.org/2000/svg" xmlns:xlink="http://www.w3.org/1999/xlink" viewBox="0 0 144.84 128.02"><defs><style>.cls-1,.cls-12{fill:none;}.cls-2{clip-path:url(#clip-path);}.cls-3{fill:#c18563;stroke:#a46c4a;}.cls-10,.cls-12,.cls-14,.cls-15,.cls-3,.cls-4,.cls-5,.cls-6,.cls-8,.cls-9{stroke-miterlimit:10;}.cls-12,.cls-14,.cls-15,.cls-3,.cls-4,.cls-5,.cls-6{stroke-width:3px;}.cls-4,.cls-9{fill:#2f7cc1;}.cls-10,.cls-12,.cls-14,.cls-15,.cls-4,.cls-5,.cls-6,.cls-8,.cls-9{stroke:#040000;}.cls-5{fill:#d0283b;}.cls-6{fill:#f49c19;}.cls-7{font-size:48.11px;fill:#040000;font-family:BMEULJIRO-KSCpc-EUC-H, BM EULJIRO;}.cls-14,.cls-8{fill:#dd243d;}.cls-10,.cls-8,.cls-9{stroke-width:2px;}.cls-10,.cls-15{fill:#f5f4b0;}.cls-11{clip-path:url(#clip-path-2);}.cls-13{clip-path:url(#clip-path-3);}</style><clipPath id="clip-path"><path class="cls-1" d="M-223.61-1677.14H1175.22A14.18,14.18,0,0,1,1189.4-1663v971.65a14.18,14.18,0,0,1-14.18,14.18H-223.61a14.18,14.18,0,0,1-14.18-14.18V-1663A14.17,14.17,0,0,1-223.61-1677.14Z" transform="translate(-701.33 -1652.95) rotate(90)"/></clipPath><clipPath id="clip-path-2"><rect class="cls-1" x="34.44" y="1.52" width="75.95" height="125"/></clipPath><clipPath id="clip-path-3"><polygon class="cls-1" points="110.39 28.61 34.44 28.61 1.8 77.57 34.44 126.52 110.39 126.52 143.04 77.57 110.39 28.61"/></clipPath></defs><g class="cls-2"><rect class="cls-3" x="-150.28" y="-14.16" width="299.65" height="69.91"/></g><polygon class="cls-4" points="110.39 28.61 34.44 28.61 1.8 77.57 34.44 126.52 110.39 126.52 143.04 77.57 110.39 28.61"/><rect class="cls-4" x="34.44" y="1.52" width="75.95" height="125"/><rect class="cls-5" x="34.44" y="121.6" width="75.95" height="4.92"/><circle class="cls-6" cx="72.42" cy="79.17" r="30.38"/><text class="cls-7" transform="translate(51.41 94.41)">복</text><polygon class="cls-8" points="72.42 32 99.8 1.52 45.04 1.52 72.42 32"/><polygon class="cls-9" points="50.73 1.52 94.11 1.52 72.42 25.67 50.73 1.52"/><polygon class="cls-10" points="56.41 1.52 88.42 1.52 72.42 19.34 56.41 1.52"/><polygon class="cls-8" points="62.1 1.52 82.74 1.52 72.42 13.01 62.1 1.52"/><g class="cls-11"><polygon class="cls-8" points="110.39 32 137.77 1.52 83.02 1.52 110.39 32"/><polygon class="cls-9" points="88.7 1.52 132.08 1.52 110.39 25.67 88.7 1.52"/><polygon class="cls-10" points="94.39 1.52 126.4 1.52 110.39 19.34 94.39 1.52"/><polygon class="cls-8" points="100.08 1.52 120.71 1.52 110.39 13.01 100.08 1.52"/><polygon class="cls-8" points="34.44 32 61.82 1.52 7.07 1.52 34.44 32"/><polygon class="cls-9" points="12.76 1.52 56.13 1.52 34.44 25.67 12.76 1.52"/><polygon class="cls-10" points="18.44 1.52 50.45 1.52 34.44 19.34 18.44 1.52"/><polygon class="cls-8" points="24.13 1.52 44.76 1.52 34.44 13.01 24.13 1.52"/></g><rect class="cls-12" x="34.44" y="1.52" width="75.95" height="125"/><g class="cls-13"><polygon class="cls-14" points="1.8 77.57 34.44 126.52 34.44 28.61 1.8 77.57"/><polygon class="cls-4" points="34.44 38.78 34.44 116.36 8.58 77.57 34.44 38.78"/><polygon class="cls-15" points="34.44 48.94 34.44 106.19 15.36 77.57 34.44 48.94"/><polygon class="cls-14" points="34.44 59.11 34.44 96.02 22.14 77.57 34.44 59.11"/><polygon class="cls-14" points="143.2 77.57 110.56 28.61 110.56 126.52 143.2 77.57"/><polygon class="cls-4" points="110.56 116.36 110.56 38.78 136.42 77.57 110.56 116.36"/><polygon class="cls-15" points="110.56 106.19 110.56 48.95 129.64 77.57 110.56 106.19"/><polygon class="cls-14" points="110.56 96.02 110.56 59.11 122.86 77.57 110.56 96.02"/></g></svg>