<svg id="레이어_1" data-name="레이어 1" xmlns="http://www.w3.org/2000/svg" xmlns:xlink="http://www.w3.org/1999/xlink" viewBox="0 0 144.84 128.02"><defs><style>.cls-1,.cls-8{fill:none;}.cls-2{clip-path:url(#clip-path);}.cls-3{fill:#c18563;stroke:#a46c4a;}.cls-10,.cls-11,.cls-3,.cls-4,.cls-6,.cls-8,.cls-9{stroke-miterlimit:10;}.cls-3,.cls-4,.cls-6,.cls-8{stroke-width:3px;}.cls-11,.cls-4{fill:#b4ba44;}.cls-10,.cls-11,.cls-4,.cls-6,.cls-8,.cls-9{stroke:#040000;}.cls-5{fill:#e1dc4d;}.cls-6{fill:#e5e5e5;}.cls-7{font-size:48.11px;fill:#040000;font-family:BMEULJIRO-KSCpc-EUC-H, BM EULJIRO;}.cls-9{fill:#dd243d;}.cls-10,.cls-11,.cls-9{stroke-width:2px;}.cls-10{fill:#2f7cc1;}</style><clipPath id="clip-path"><path class="cls-1" d="M-391-1677.14H1007.79A14.18,14.18,0,0,1,1022-1663v971.65a14.18,14.18,0,0,1-14.18,14.18H-391a14.18,14.18,0,0,1-14.18-14.18V-1663A14.17,14.17,0,0,1-391-1677.14Z" transform="translate(-868.77 -1485.51) rotate(90)"/></clipPath></defs><g class="cls-2"><rect class="cls-3" x="-18.06" y="-14.16" width="299.65" height="69.91"/></g><polygon class="cls-4" points="110.29 28.71 34.34 28.71 1.7 77.67 34.34 126.63 110.29 126.63 142.93 77.67 110.29 28.71"/><ellipse class="cls-5" cx="20.8" cy="73.56" rx="1.4" ry="4.33"/><ellipse class="cls-5" cx="16.69" cy="76.55" rx="1.4" ry="4.33" transform="translate(-61.28 68.76) rotate(-72)"/><ellipse class="cls-5" cx="18.26" cy="81.39" rx="4.33" ry="1.4" transform="translate(-58.32 48.32) rotate(-54)"/><ellipse class="cls-5" cx="23.35" cy="81.39" rx="1.4" ry="4.33" transform="translate(-43.38 29.27) rotate(-36)"/><ellipse class="cls-5" cx="24.92" cy="76.55" rx="4.33" ry="1.4" transform="translate(-22.44 11.45) rotate(-18)"/><ellipse class="cls-5" cx="33.17" cy="97.86" rx="1.4" ry="4.33"/><ellipse class="cls-5" cx="29.06" cy="100.85" rx="1.4" ry="4.33" transform="translate(-75.84 97.32) rotate(-72)"/><ellipse class="cls-5" cx="30.63" cy="105.69" rx="4.33" ry="1.4" transform="translate(-72.88 68.35) rotate(-54)"/><ellipse class="cls-5" cx="35.72" cy="105.69" rx="1.4" ry="4.33" transform="translate(-55.3 41.18) rotate(-36)"/><ellipse class="cls-5" cx="37.29" cy="100.85" rx="4.33" ry="1.4" transform="translate(-29.34 16.46) rotate(-18)"/><ellipse class="cls-5" cx="33.17" cy="50.82" rx="1.4" ry="4.33"/><ellipse class="cls-5" cx="29.06" cy="53.81" rx="1.4" ry="4.33" transform="translate(-31.1 64.82) rotate(-72)"/><ellipse class="cls-5" cx="30.63" cy="58.65" rx="4.33" ry="1.4" transform="translate(-34.82 48.96) rotate(-54)"/><ellipse class="cls-5" cx="35.72" cy="58.65" rx="1.4" ry="4.33" transform="translate(-27.65 32.2) rotate(-36)"/><ellipse class="cls-5" cx="37.29" cy="53.81" rx="4.33" ry="1.4" transform="translate(-14.8 14.16) rotate(-18)"/><ellipse class="cls-5" cx="123.83" cy="73.56" rx="1.4" ry="4.33"/><ellipse class="cls-5" cx="127.95" cy="76.55" rx="4.33" ry="1.4" transform="translate(-17.39 43.29) rotate(-18)"/><ellipse class="cls-5" cx="126.38" cy="81.39" rx="1.4" ry="4.33" transform="translate(-23.7 89.83) rotate(-36)"/><ellipse class="cls-5" cx="121.29" cy="81.39" rx="4.33" ry="1.4" transform="translate(-15.85 131.68) rotate(-54)"/><ellipse class="cls-5" cx="119.72" cy="76.55" rx="1.4" ry="4.33" transform="translate(9.92 166.75) rotate(-72)"/><ellipse class="cls-5" cx="111.46" cy="97.86" rx="1.4" ry="4.33"/><ellipse class="cls-5" cx="115.58" cy="100.85" rx="4.33" ry="1.4" transform="translate(-25.51 40.65) rotate(-18)"/><ellipse class="cls-5" cx="114.01" cy="105.69" rx="1.4" ry="4.33" transform="translate(-40.35 87.2) rotate(-36)"/><ellipse class="cls-5" cx="108.92" cy="105.69" rx="4.33" ry="1.4" transform="translate(-40.61 131.68) rotate(-54)"/><ellipse class="cls-5" cx="107.34" cy="100.85" rx="1.4" ry="4.33" transform="translate(-21.74 171.78) rotate(-72)"/><ellipse class="cls-5" cx="111.46" cy="50.82" rx="1.4" ry="4.33"/><ellipse class="cls-5" cx="115.58" cy="53.81" rx="4.33" ry="1.4" transform="translate(-10.97 38.35) rotate(-18)"/><ellipse class="cls-5" cx="114.01" cy="58.65" rx="1.4" ry="4.33" transform="translate(-12.7 78.21) rotate(-36)"/><ellipse class="cls-5" cx="108.92" cy="58.65" rx="4.33" ry="1.4" transform="translate(-2.55 112.29) rotate(-54)"/><ellipse class="cls-5" cx="107.34" cy="53.81" rx="1.4" ry="4.33" transform="matrix(0.31, -0.95, 0.95, 0.31, 23, 139.27)"/><rect class="cls-4" x="34.34" y="1.42" width="75.95" height="125"/><circle class="cls-6" cx="72.32" cy="79.27" r="30.38"/><text class="cls-7" transform="translate(51.31 94.51)">복</text><rect class="cls-8" x="34.34" y="1.63" width="75.95" height="125"/><path class="cls-9" d="M34.79,2.19H53.63a0,0,0,0,1,0,0V26.92a9.42,9.42,0,0,1-9.42,9.42h0a9.42,9.42,0,0,1-9.42-9.42V2.19a0,0,0,0,1,0,0Z"/><path class="cls-10" d="M44.21,33a6.12,6.12,0,0,1-6.11-6.11V2.19H50.32V26.92A6.12,6.12,0,0,1,44.21,33Z"/><path class="cls-11" d="M44.21,29.72a2.8,2.8,0,0,1-2.79-2.8V2.19H47V26.92A2.81,2.81,0,0,1,44.21,29.72Z"/><path class="cls-9" d="M53.52,2.19H72.36a0,0,0,0,1,0,0V26.92a9.42,9.42,0,0,1-9.42,9.42h0a9.42,9.42,0,0,1-9.42-9.42V2.19A0,0,0,0,1,53.52,2.19Z"/><path class="cls-10" d="M62.94,33a6.12,6.12,0,0,1-6.11-6.11V2.19H69.05V26.92A6.12,6.12,0,0,1,62.94,33Z"/><path class="cls-11" d="M62.94,29.72a2.8,2.8,0,0,1-2.79-2.8V2.19h5.59V26.92A2.81,2.81,0,0,1,62.94,29.72Z"/><path class="cls-9" d="M72.25,2.19H91.1a0,0,0,0,1,0,0V26.92a9.42,9.42,0,0,1-9.42,9.42h0a9.42,9.42,0,0,1-9.42-9.42V2.19A0,0,0,0,1,72.25,2.19Z"/><path class="cls-10" d="M81.67,33a6.12,6.12,0,0,1-6.11-6.11V2.19H87.78V26.92A6.12,6.12,0,0,1,81.67,33Z"/><path class="cls-11" d="M81.67,29.72a2.8,2.8,0,0,1-2.79-2.8V2.19h5.59V26.92A2.8,2.8,0,0,1,81.67,29.72Z"/><path class="cls-9" d="M91,2.19h18.84a0,0,0,0,1,0,0V26.92a9.42,9.42,0,0,1-9.42,9.42h0A9.42,9.42,0,0,1,91,26.92V2.19A0,0,0,0,1,91,2.19Z"/><path class="cls-10" d="M100.4,33a6.11,6.11,0,0,1-6.1-6.11V2.19h12.21V26.92A6.12,6.12,0,0,1,100.4,33Z"/><path class="cls-11" d="M100.4,29.72a2.8,2.8,0,0,1-2.79-2.8V2.19h5.59V26.92A2.8,2.8,0,0,1,100.4,29.72Z"/></svg>